<svg xmlns="http://www.w3.org/2000/svg" viewBox="0 0 600 600"><defs><style>.cls-1{fill:#3f3f3f;}.cls-2,.cls-3{fill:#fac042;}.cls-3{font-size:140px;font-family:MyriadPro-Regular, Myriad Pro;letter-spacing:0.19em;}.cls-4,.cls-5{fill:#6b6b6b;}.cls-5,.cls-6{stroke:#000;stroke-miterlimit:10;stroke-width:0.5px;}.cls-6{fill:#848484;}</style></defs><title>background-4</title><g id="Шар_7" data-name="Шар 7"><path class="cls-1" d="M512.53,61.9c.86-2.54,6.79-20,6.73-21,0-.23,4.63-8.49,8-8.37,8.11.28,20.28,2.38,27.23,3.54,2.31.39,4,8,4,8.4a169.18,169.18,0,0,0,1.76,21.82c-5.43,1-14-1.3-22.82-2.07S519.43,64.13,512.53,61.9Z"/></g><g id="фасція"><polyline class="cls-2" points="298.58 272 307 272 311 340 304 353 299 341 298.58 272"/><text class="cls-3" transform="translate(103.41 551.4)">SPQR</text><path class="cls-2" d="M361,326c3.54.66,7.12,1.93,6,0-2.37-4.1-26-58-26-58a7.22,7.22,0,0,0-3,4C336.66,276.15,356.62,325.18,361,326Z"/><path class="cls-2" d="M335,277c.92-1.07,5-1,4,0-2.3,2.1,18,54.35,21.14,54.63,1.38.11-5.64.69-8.14-.63S333.61,278.63,335,277Z"/><path class="cls-2" d="M250,327c-1,2,2.87,2.69,5,2s15.23-47.71,14-49c-1-1-4,0-4,0C266.77,280.63,250.7,325.6,250,327Z"/><path class="cls-2" d="M240,326c-1,.15,3.21,2.11,5,3,2.46,1.22,23.51-50.65,22-54-.92-2-5-2.41-5-1C262,275.92,241,325.85,240,326Z"/><path class="cls-2" d="M342,345h8s-6-24-9-24C338,324,342,345,342,345Z"/><path class="cls-2" d="M255,346c0-1,7-25,10-25s-1,25-2,25S255,347,255,346Z"/><path class="cls-2" d="M307,346c0-1,1-12,5-13s22-1,25,0,5,3,5,4,2,9,1,9-3,1-4,0-1-8-3-9-19-1-22,0-4,9-4,9S307,347,307,346Z"/><path class="cls-2" d="M264,344c0-1,1-12,5-13s22-1,25,0,5,3,5,4,2,9,1,9-3,1-4,0-1-8-3-9-19-1-22,0-4,9-4,9S264,345,264,344Z"/><path class="cls-2" d="M377,386c2,1,12.2,2,14.1,0s-.1-14,.9-15,9,13,11,14,6.84.37,7.92-1.32S395,363,394,361s0-13-1-14-13,0-14,1,5,10,5,13S375,385,377,386Z"/><path class="cls-2" d="M357,342c-.83-1.14,3-1,5,0s0,42-2,43-9.31.53-8,0C353.13,384.54,358.12,343.54,357,342Z"/><path class="cls-2" d="M284,382c14.75-11.28,24.39-24.2,33-37,0,0,7-1,7,1s-25,35-29,36S284,382,284,382Z"/><path class="cls-2" d="M255,343c-2-2-3.46-2.16-7.83-.29-5.94,2.52-4.81,39.51-1.17,41.29,2.54,1.25,8,2,9,0C251,381,250,346,255,343Z"/><path class="cls-2" d="M224,385c-5.6-1.16-4.09-40.73,0-42,.67,0-5-1-7,0-7,7-9,31-2,42C222,387,224,385,224,385Z"/><path class="cls-2" d="M174,388c-7,1,7-8,11-10s270-1,270-1v7s-263-2-268-1S181,387,174,388Z"/><path class="cls-2" d="M184,366c-6,0-14,12-10,12,7-4,6-7,10-7s264,2,264,0-14-6-14-6S190,366,184,366Z"/><polygon class="cls-2" points="180 355 445 354 445 360 178 359 180 355"/><path class="cls-2" d="M176,338c2,0,5,4,8,5s246,1,248,0,5-6,7-4-2,9-5,10-246,0-250-1-8-5-9-6S174,338,176,338Z"/></g><g id="вінок"><path class="cls-2" d="M416,341c2,0,8-2,9-3s-2-8-2-15C418,322,415,333,416,341Z"/><polygon class="cls-2" points="304.09 313.23 369.77 334.79 369.76 321.75 413.87 334.35 406.37 346.17 439.89 356.8 438.5 344.07 488.98 355.98 483.39 366.64 522.21 378.26 521.43 368.29 560.48 377.68 556.1 367.79 586.19 385.71 550.76 389.27 561.41 381.82 525.43 373.19 527.05 383.7 477.33 368.72 483.23 359.44 444.72 349.2 444.73 362.24 400.62 349.63 409.19 336.12 374.59 327.19 374.61 340.23 301.72 318.83 304.09 313.23"/><polygon class="cls-2" points="303.03 314 370.03 297 363.03 286 407.03 273 407.03 287 441.03 278 433.03 268 482.03 251 483.03 263 522.03 252 516.03 244 554.03 231 545.03 225 580.03 224 552.03 246 557.03 234 522.03 246 529.03 254 479.03 268 479.03 257 441.03 269 448.03 280 404.03 293 404.03 277 370.03 288 377.03 299 304.03 320 303.03 314"/><path class="cls-2" d="M363,74c0-2-12-11.84-16-11-6.59,1.38-20-6-22-4s8,11,14,14C345,75,363,76,363,74Z"/><path class="cls-2" d="M383,89c1-1-7-7-13-9s-24-2-29,0c-3,3,12,10,20,12S382,90,383,89Z"/><path class="cls-2" d="M407,101c0-2-7-8-16-7s-27,4-27,7,11,7,25,9C403,109,407,103,407,101Z"/><path class="cls-2" d="M430,121c0,1-11,7-21,6s-26-6-23-9,13-2,24-7C422,110,430,120,430,121Z"/><path class="cls-2" d="M442,136c-2,1-17,2-22,1s-12-5-10-6,11,0,11,0,9-5,13-4S444,135,442,136Z"/><path class="cls-2" d="M482,280c0-9-7-16-10-19-3-1-13,3-17,5-2.16,5.28,20.7,18.9,20,17C475,283,479,286,482,280Z"/><path class="cls-2" d="M473,304c2-3-1-13-3-16s-17-17-19-18-4,0-4,2,5,6,5,7-3,1-4,4c-1,8,13,21,15,22S471,307,473,304Z"/><path class="cls-2" d="M462,326c3-8,1-16-2-19s-14-20-20-21,1,22,2,25S459,334,462,326Z"/><path class="cls-2" d="M449,341c-8-5-13-4-18-11-3-4-5-27-2-28a59.28,59.28,0,0,0,16,18S455,333,449,341Z"/><path class="cls-2" d="M331,399c-1-2,5-12,7-13s7,0,12,0c3,4,14,1,14,1s-10,9-15,10S332,401,331,399Z"/><path class="cls-2" d="M477,360s-1,5-4,8c-11,2-22-1-26-5-2-2,0-9,1-11C450,351,477,360,477,360Z"/><path class="cls-2" d="M342,55c3-6-8-16-10-18s-14-10-17-9c-.69,6.64,7,10,9,16S339,61,342,55Z"/><path class="cls-2" d="M366,61c2.07-11.86-19-31-31-31-5,4,9,14,11,21C343.89,48.26,364.5,69.79,366,61Z"/><path class="cls-2" d="M387,74c2-1-3-15-5-20s-17-16-19-16,4,13,6,20S385,75,387,74Z"/><path class="cls-2" d="M411,91c2,0,0-13-1-19s-19-24-22-23,2,20,5,26C397,80,401,82,411,91Z"/><path class="cls-2" d="M433,112c2-6,1-20,0-25s-17-24-19-23,1,22,2,28C422,94,425,109,433,112Z"/><path class="cls-2" d="M451,131c3,0,5-19,3-27s-12-22-14-22-5,11-3,25,9,19,9,19S448,131,451,131Z"/><path class="cls-2" d="M455,136c.64-.86,16.92,1.86,16-15-1-18.11-11.68-25.15-12-25C459.53,112.52,458.06,119.63,455,136Z"/><path class="cls-2" d="M469,136c2,1,9,0,11,0s4-8,4-10-4-10-5-14c-4-2-4,10-5,14S467,135,469,136Z"/><path class="cls-2" d="M495,255c2,2,14-3,19-7,0-7-1-10,7-11s9-19,7-19c-9,8-21,12-24,15S494,249,495,255Z"/><path class="cls-2" d="M493.34,282.16c13.43,4.85,30.94-16.15,32.95-24.67-9.74,5.63-18.67,4.06-23,8.11C500.05,268.57,486.9,279.83,493.34,282.16Z"/><path class="cls-2" d="M486,306c15.64,6.74,38-17,41-27-12,6-22.51,3.5-28,8C495,290.31,478.53,302.77,486,306Z"/><path class="cls-2" d="M479.15,325.5c19.35,7.05,44.34-11.07,43.24-21-12.37,5-19.91,2.14-28.64,4.54C485.17,312.39,475.25,320,479.15,325.5Z"/><path class="cls-2" d="M466,344c18,10,45.52-4,46-14-13,3-20-1-29,0C474,332,463,338,466,344Z"/><path class="cls-2" d="M450,370c-8.77.24-9.06-1.19-16,5,8,20,42.39,8,44,2C467.14,377.55,458.81,369.76,450,370Z"/><path class="cls-2" d="M429.47,384.64c-9.8-1-12.81-.85-21.44,5,6.65,17.79,48.82,16.37,49.44,5.73C445.26,394.44,439.28,385.65,429.47,384.64Z"/><path class="cls-2" d="M407.63,397.26c-9.6-2.26-12.6-2.49-21.91,2.24C390,418,432,422,434,411.53,422,409,417.23,399.51,407.63,397.26Z"/><path class="cls-2" d="M361,405c9.9-3.31,19,.09,22,1,14.21,6.56,4.79,11.6,24,18C393.91,434.75,360.79,420.57,361,405Z"/><path class="cls-2" d="M332,407c10-3,15-1,18,0,14,7,8,12,27,19C363.58,436.33,331.3,422.56,332,407Z"/><path class="cls-2" d="M288,443c14-25,11-19,42-37,21.47-3,39-3.62,56-10,118-52.6,133.78-164.91,72-252-25.13-35.43-65.78-67.82-114-88-4.23,6-4,3-4,3,86.58,32.7,135,102,146,173,7.8,80.61-45.16,158.75-159,169-14-1-52.17,27.14-49,35Z"/><path class="cls-2" d="M190,342c-2,0-8-2-9-3s2-8,2-15C188,323,191,334,190,342Z"/><polygon class="cls-2" points="301.94 314.23 236.26 335.79 236.28 322.75 192.16 335.35 199.67 347.17 166.14 357.8 167.53 345.07 117.05 356.98 122.64 367.64 83.82 379.26 84.6 369.29 45.55 378.68 49.93 368.79 19.85 386.71 55.28 390.27 44.62 382.82 80.6 374.19 78.98 384.7 128.7 369.72 122.8 360.44 161.31 350.2 161.3 363.24 205.41 350.63 196.84 337.12 231.44 328.19 231.43 341.23 304.31 319.83 301.94 314.23"/><polygon class="cls-2" points="303 315 236 298 243 287 199 274 199 288 165 279 173 269 124 252 123 264 84 253 90 245 52 232 61 226 26 225 54 247 49 235 84 247 77 255 127 269 127 258 165 270 158 281 202 294 202 278 236 289 229 300 302 321 303 315"/><path class="cls-2" d="M243,75c0-2,12-11.84,16-11,6.6,1.38,20-6,22-4s-8,11-14,14C261,76,243,77,243,75Z"/><path class="cls-2" d="M223,90c-1-1,7-7,13-9s24-2,29,0c3,3-12,10-20,12S224,91,223,90Z"/><path class="cls-2" d="M199,102c0-2,7-8,16-7s27,4,27,7-11,7-25,9C203,110,199,104,199,102Z"/><path class="cls-2" d="M176,122c0,1,11,7,21,6s26-6,23-9-13-2-24-7C184,111,176,121,176,122Z"/><path class="cls-2" d="M164,137c2,1,17,2,22,1s12-5,10-6-11,0-11,0-9-5-13-4S162,136,164,137Z"/><path class="cls-2" d="M124,281c0-9,7-16,10-19,3-1,13,3,17,5,2.16,5.28-20.7,18.9-20,17C131,284,127,287,124,281Z"/><path class="cls-2" d="M133,305c-2-3,1-13,3-16s17-17,19-18,4,0,4,2-5,6-5,7,3,1,4,4c1,8-13,21-15,22S135,308,133,305Z"/><path class="cls-2" d="M144,327c-3-8-1-16,2-19s14-20,20-21-1,22-2,25S147,335,144,327Z"/><path class="cls-2" d="M157,342c8-5,13-4,18-11,3-4,5-27,2-28a59.28,59.28,0,0,1-16,18S151,334,157,342Z"/><path class="cls-2" d="M275,400c1-2-5-12-7-13s-7,0-12,0c-3,4-14,1-14,1s10,9,15,10S274,402,275,400Z"/><path class="cls-2" d="M129,361s1,5,4,8c11,2,22-1,26-5,2-2,0-9-1-11C156,352,129,361,129,361Z"/><path class="cls-2" d="M264,56c-3-6,8-16,10-18s14-10,17-9c.69,6.64-7,10-9,16S267,62,264,56Z"/><path class="cls-2" d="M240,62c-2.07-11.86,19-31,31-31,5,4-9,14-11,21C262.15,49.26,241.53,70.79,240,62Z"/><path class="cls-2" d="M219,75c-2-1,3-15,5-20s17-16,19-16-4,13-6,20S221,76,219,75Z"/><path class="cls-2" d="M195,92c-2,0,0-13,1-19s19-24,22-23-2,20-5,26C209,81,205,83,195,92Z"/><path class="cls-2" d="M173,113c-2-6-1-20,0-25s17-24,19-23-1,22-2,28C184,95,181,110,173,113Z"/><path class="cls-2" d="M155,132c-3,0-5-19-3-27s12-22,14-22,5,11,3,25-9,19-9,19S158,132,155,132Z"/><path class="cls-2" d="M151,137c-.63-.86-16.92,1.86-16-15,1-18.11,11.68-25.15,12-25C146.5,113.52,148,120.63,151,137Z"/><path class="cls-2" d="M137,137c-2,1-9,0-11,0s-4-8-4-10,4-10,5-14c4-2,4,10,5,14S139,136,137,137Z"/><path class="cls-2" d="M111,256c-2,2-14-3-19-7,0-7,1-10-7-11s-9-19-7-19c9,8,21,12,24,15S112,250,111,256Z"/><path class="cls-2" d="M112.7,283.16C99.27,288,81.75,267,79.75,258.49c9.74,5.63,18.66,4.06,23,8.11C106,269.57,119.14,280.83,112.7,283.16Z"/><path class="cls-2" d="M120,307c-15.64,6.74-38-17-41-27,12,6,22.51,3.5,28,8C111,291.31,127.5,303.77,120,307Z"/><path class="cls-2" d="M126.88,326.5c-19.34,7.05-44.34-11.07-43.24-21,12.37,5,19.91,2.14,28.64,4.54C120.86,313.39,130.78,321,126.88,326.5Z"/><path class="cls-2" d="M140,345c-18,10-45.52-4-46-14,13,3,20-1,29,0C132,333,143,339,140,345Z"/><path class="cls-2" d="M156,371c8.78.24,9.06-1.19,16,5-8,20-42.39,8-44,2C138.89,378.55,147.22,370.76,156,371Z"/><path class="cls-2" d="M176.56,385.64c9.81-1,12.82-.85,21.44,5-6.65,17.79-48.82,16.37-49.44,5.73C160.77,395.44,166.75,386.65,176.56,385.64Z"/><path class="cls-2" d="M198.4,398.26c9.6-2.26,12.6-2.49,21.91,2.24C216,419,174,423,172,412.53,184,410,188.81,400.51,198.4,398.26Z"/><path class="cls-2" d="M245,406c-9.9-3.31-19,.09-22,1-14.21,6.56-4.79,11.6-24,18C212.12,435.75,245.24,421.57,245,406Z"/><path class="cls-2" d="M274,408c-10-3-15-1-18,0-14,7-8,12-27,19C242.45,437.33,274.73,423.56,274,408Z"/><path class="cls-2" d="M318,444c-14-25-11-19-42-37-21.47-3-39-3.62-56-10C102,344.4,86.22,232.09,148,145c25.13-35.43,65.78-67.82,114-88,4.24,6,4,3,4,3C179.43,92.7,131,162,120,233c-7.79,80.61,45.17,158.75,159,169,14-1,52.17,27.14,49,35Z"/></g><g id="тіло"><path class="cls-2" d="M332,338c6.4-6.07,9-23,8-30a10.56,10.56,0,0,0-6,0C338,320,330.09,335.33,332,338Z"/><path class="cls-2" d="M327,338c-2,0-3-28-2-29s5-1,6,0S329,338,327,338Z"/><path class="cls-2" d="M321,311c-1-2-1-3-6-2-5,5-4,21,6,28C319,324,313,322,321,311Z"/><path class="cls-2" d="M287,338c4.81-20.85,3-28,4-29s4-1,5,0C297,313,293,340,287,338Z"/><path class="cls-2" d="M282,337c-1,0-3-27-1-29s5-2,6,0S283,337,282,337Z"/><path class="cls-2" d="M272,338c-5-1-4-31-3-32s5,1,6,2S270,319,272,338Z"/><path class="cls-2" d="M312.69,288.5c-2.29,13.14-6,18.35-5,19.3a74.61,74.61,0,0,1,8.4-1.44c-1.23-.88-2.57-1.88-2.57-1.88s.79-4.05,1.84-3.11c.88.8.44,3.07,1.52,4.9,3.28-.37,6.61-.59,9.8-.74-1.52-1.7-3.3-4.06-3.33-4.59-.06-1,4.88-2.27,5-.27.09,1.7-.56,2.72-.06,4.78,4.7-.19,9-.26,12.31-.43-6.37-6.67-9.69-12.5-9.85-15.49s3.62-7.21,4.45-10.26.14-16-1.13-21-5.8-14.71-7.8-14.6c-2.4,11.15-17.27,13.95-21.1,17.17s.81,15,.81,15S312.31,281.51,312.69,288.5ZM322.94,293l3.11,1.84-3,.16Zm-3.26-4.83c-.05-1-.16-3,.78-4.05s4.05.79,4.16,2.78.21,4-.78,4S319.73,289.12,319.68,288.12Zm-1.81-14.92c4.05.78,5.78-4.32,6.72-5.37s-.54-10,.46-10,4.37,6.77,5.48,8.72,2.53,9.87.59,11-2.89,2.16-4,.22c2.94-1.17,2.61-7.16,1.51-9.1s-4,.22-3.94,1.21.32,6-.62,7.05-.89,2.05-1.89,2.1S317,276.25,317.87,273.2Zm-1.16-2.94c-.94,1.05-2,.11-3,.16s-1.48-8.93.52-9S317.65,269.2,316.71,270.26Zm1.24,23,.16,3a9.93,9.93,0,0,1-2.94,1.16C314.17,297.43,317.84,291.23,318,293.22Zm-5.75-13.71c-1.05-.94-2.21-3.88-1.27-4.93s2-.11,3.05.83,2.22,3.89,2.22,3.89S313.26,280.46,312.2,279.51Z"/><path class="cls-2" d="M298,274s4-12,0-15-19-5-22-16c-2,0-6,10-7,15s-1,18,0,21,5,7,5,10-3,9-9,16c3.29,0,7.61-.17,12.32-.23.39-2.09-.32-3.07-.32-4.77,0-2,5-1,5,0,0,.52-1.65,3-3.08,4.76,3.2,0,6.53,0,9.83.21,1-1.89.41-4.13,1.25-5,1-1,2,3,2,3s-1.28,1.07-2.47,2a74.73,74.73,0,0,1,8.47,1c1-1-3-6-6-19C292,280,298,274,298,274Zm-16,20h-3l3-2Zm-1-4c-1,0-1-2-1-4s3-4,4-3,1,3,1,4S282,290,281,290Zm1-12c-1,0-1-1-2-2s-1-6-1-7-3-3-4-1-1,8,2,9c-1,2-2,1-4,0s-1-9,0-11,4-9,5-9,0,9,1,10,3,6,7,5C287,275,283,278,282,278Zm7-18c2,0,2,9,1,9s-2,1-3,0S287,260,289,260Zm1,36a10.07,10.07,0,0,1-3-1v-3C287,290,291,296,290,296Zm-2-18s1-3,2-4,2-2,3-1,0,4-1,5S288,278,288,278Z"/><path class="cls-2" d="M334,247c2-1,2-22,1-25-6,3-3,7-8,14C325.49,236.81,331.57,248.23,334,247Z"/><path class="cls-2" d="M307,254c0-5,6-20,6-20s6,5,13-3C328,238,319,256,307,254Z"/><path class="cls-2" d="M302,258c-5-.4-7-17-6-22,4,1,9,2,13,0C307.79,238.27,306.36,258.35,302,258Z"/><path class="cls-2" d="M277,230c-3-1,3,9,3,9-3,4,3,12,17,15-3-8-1-23-5-22C288,235,284,235,277,230Z"/><path class="cls-2" d="M269,223c-2,0-1,20,0,24,3,1,7-6,8-8s-3-7-3-7S271,223,269,223Z"/><path class="cls-2" d="M324,227c-1-2,1-22,1-23s5-2,10-2C338,204,331,228,324,227Z"/><path class="cls-2" d="M316,233c-7-4-3-27-3-27s9-1,10,0S323,237,316,233Z"/><path class="cls-2" d="M301,234c-7-3-5-28-5-28h14S308,237,301,234Z"/><path class="cls-2" d="M287,232c-6,3-9-22-7-24,2-1,11-2,13-1C294,209,293,229,287,232Z"/><path class="cls-2" d="M275,225c2-1,4-20,3-22a33.85,33.85,0,0,0-8-3C265,203,266,222,275,225Z"/><path class="cls-2" d="M329,182c1-2,6-4,8-3,1,2,2,23-2,21S328,184,329,182Z"/><path class="cls-2" d="M312,184c1-1,13-2,14-2s0,23-5,21S311,185,312,184Z"/><path class="cls-2" d="M303,204c-6-1-9-20-8-21s13-1,14,0S309,205,303,204Z"/><path class="cls-2" d="M282,205c-3,0-2-20-1-21s10-2,12,0S289,200,282,205Z"/><path class="cls-2" d="M266,199c-3-13,2-21,4-22s8,1,9,3C279.19,187.9,270.92,198,266,199Z"/><path class="cls-2" d="M318,139c4-5,7-8,3-19-3-5-8-10-22-10-6-1-20.8,3-21,8.89,2.8,2.38,10.14,8.41,11,10.11,1,2,2,7,1,7s-1-3-5-5c-8,1-16,1-18,2a7.68,7.68,0,0,0-3.8,3.93A11.37,11.37,0,0,1,266,136c5.48-1.15,15-2.06,19,2,1.81,1.82,1.39,5.07,1,9-2,11-5,18-15,29,0,3,8-2,11-2,2,1,2,7,6,7s8-7,9-7,4,7,7,7,1-7,3-7c1,3,12,8,14,7s-2-6,0-7c4,1,15,6,16,3S319,163.65,318,139Zm-24-15h-3a1,1,0,0,1,1-1s2-1,2-2-2-2-3-2-3,0-3,2v2s-4-1-4-3-1-1,2-2,13,0,16,0C304,119,296,123,294,124Z"/><path class="cls-2" d="M266,131c3-1,18-1,18-2a72,72,0,0,1-5.32-6.09,3.25,3.25,0,0,1-1.87,1.06c-1.35.29-2.58-.14-2.75-1s.78-1.7,2.13-2a3.78,3.78,0,0,1,1-.08c-.57-.76-.9-1.24-.9-1.24-5,1.15-18.69,3.81-16.28,18.29C260,138,263,132,266,131Z"/></g><g id="Крила"><path class="cls-2" d="M587.31,130.5c-4,1-8,8-12,8s-158,2-169,2-11,0-15,5-5,9-10,20-32,13-42,15c2,12,2,13-1,25,1,1,5.77-5.81,8-6,6,2,10,0,10-4,0,0,9,4,13-4,2-1,8,4,10-5,2-1,8,3,6-6,3-1,13,0,9-7,2-1,17,3,7-6,6-5,12-1,15-4,0-2-7-7-7-7s139,1,142,1c20,0,26-8,29-11C582.94,144.75,591.31,129.5,587.31,130.5Z"/><path class="cls-2" d="M572.81,158c-6,0-8,2-41,2-4,13-24,15-33,17C551.81,184,574.81,166,572.81,158Z"/><path class="cls-2" d="M526.81,162h-65l-4,14,41-1S527.81,171,526.81,162Z"/><path class="cls-2" d="M456.81,161s-35-1-39,0c-2,4,34,13,36,12s4-3,3-5c-5,0-12-1-12-2s11,0,12,0S456.81,161,456.81,161Z"/><path class="cls-2" d="M559.81,178c-6,0-4,2-33,4-8,18-42,12-51,14C533.81,211,552.81,190,559.81,178Z"/><path class="cls-2" d="M521.81,182c-7,0-65-2-65-2l-5,13h44S522.81,191,521.81,182Z"/><path class="cls-2" d="M451.81,177c-1-1-35-13-40-10-5,6,32,22,35,22s6-3,4-5c-3,0-12-3-12-4s12,2,13,2S452.81,178,451.81,177Z"/><path class="cls-2" d="M443.81,193c-1-1-32-21-37-18-5,6,26,29,29,29s7-1,5-3c-3,0-11-8-11-9s12,7,13,7S444.81,194,443.81,193Z"/><path class="cls-2" d="M434.81,207c-1-1-29-25-34-22-5,6,22,31,26,32s7-1,5-3c-3-2-11-9-11-10s12,9,13,9S435.81,208,434.81,207Z"/><path class="cls-2" d="M424.08,219.78c-.89-1.1-27-28.23-32.27-25.78-5.61,5.44,19.38,33.46,23.26,34.87s5.52-1.67,3.74-3.87c-2.77-2.31-8.44-8.69-8.33-9.69s11.34,9.58,12.33,9.69S425,220.88,424.08,219.78Z"/><path class="cls-2" d="M413.12,231.55c-.77-1.2-23.76-31-29.28-29.13-6.17,4.79,15.63,35.36,19.33,37.19s4.64-.61,4.64-2.61c-2.5-2.59-7.95-10.39-7.73-11.37s10.23,10.76,11.21,11S413.88,232.74,413.12,231.55Z"/><path class="cls-2" d="M398.81,243c-.52-1.32-18.22-34.75-24-34-7,3.5,9.74,37.48,13,40,4,0,2,0,4-1,0-2-6.05-12.82-4.53-13.91s5.61,12.51,6.53,12.91S399.33,244.32,398.81,243Z"/><path class="cls-2" d="M383.81,250c-.39-1.36-12.93-36.85-18.76-36.67-7.29,2.8,2.76,32.67,7.76,41.67,3,2,4.42.91,5-1-1.64-3.21-5-11-3.95-13.74C375.81,240,379,254,381.4,254S384.2,251.36,383.81,250Z"/><path class="cls-2" d="M368.81,257c1-3-13-39-13-39s-5-1-6,1,4,39,6,41,1,1,5,1c1-1-4-17-3-18s1-1,2,0,3,17,4,17S367.81,260,368.81,257Z"/><path class="cls-2" d="M351.81,262c1.3-2.88-7-40-7-40s-5.67-1.74-6.87.15.08,37.66,1.87,39.85,1,1.59,5,2c1.1-.89-2.1-18.11-1-19s1.11-1.1,2,0,1,17.9,2,18S350.51,264.88,351.81,262Z"/><path class="cls-2" d="M409.81,169c0-2,0-2-2-2s-3,1-3,2,1,3,2,3A3.19,3.19,0,0,0,409.81,169Z"/><path class="cls-2" d="M403.81,178c0-2-6-4-7-3s2,7,4,7S403.81,180,403.81,178Z"/><path class="cls-2" d="M397.81,185c-1-2-7-4-9-3s3,8,5,8S398.81,187,397.81,185Z"/><path class="cls-2" d="M390.81,192c-1-2-8-6-9-4s4,9,5,9S391.81,194,390.81,192Z"/><path class="cls-2" d="M383.81,198c-1-2-8-7-9-4s1,8,3,9S384.81,200,383.81,198Z"/><path class="cls-2" d="M375.81,205c0-2-6-11-8-10s0,12,2,13S375.81,207,375.81,205Z"/><path class="cls-2" d="M366.81,209c0-3-5-11-8-11s-2,14-1,15S366.81,212,366.81,209Z"/><path class="cls-2" d="M355.81,213c0-3-6-12-9-10s-1,11,0,12S355.81,216,355.81,213Z"/><path class="cls-2" d="M344.81,218c1-2-1-9-4-11s-4,11-3,12S343.81,220,344.81,218Z"/><path class="cls-2" d="M538.81,199c-9,4-17,6-27,6-4,7-24,10-39,9,6.56,4.58,31,6,40,5S546.81,199,538.81,199Z"/><path class="cls-2" d="M506.81,203s-53-8-57-7-2,7-7,13c1,4,38,1,50,2C505.78,209.71,506.88,203,506.81,203Z"/><path class="cls-2" d="M488.81,220s-43-9-48-8-8,7-8,9,10,2,28,5C474.92,229.77,488.74,220,488.81,220Z"/><path class="cls-2" d="M511.81,223c-1-1-12,0-21,0-5.34,6.23-29.93,3.83-36,5,3,5,8,6,26,8S512.81,224,511.81,223Z"/><path class="cls-2" d="M469.81,237s-36-13-39-13-4,2-9,7C461.81,249,469.81,237,469.81,237Z"/><path class="cls-2" d="M487.81,239c-16,1-17,4-27,4-3,3-6,4-7,6,3.47,2.21,8,3,14,3S487.81,240,487.81,239Z"/><path class="cls-2" d="M452.81,245c-3-2-28-11-30-11s-2,1-6,4C435.81,257,455.81,247,452.81,245Z"/><path class="cls-2" d="M460.81,253c-10,1-25-2-30-3s6,7,14,8S460.81,256,460.81,253Z"/><path class="cls-2" d="M431.81,257c2-1-15-15-18-15s-4,2-7,5C410.81,256,429.81,258,431.81,257Z"/><path class="cls-2" d="M418.81,259c-15-3-13-9-16-10s-6,1-7,4C405.81,264,423.81,261,418.81,259Z"/><path class="cls-2" d="M418.81,263c-6,1-13-1-16-1s5,5,9,5S424.81,262,418.81,263Z"/><path class="cls-2" d="M436.81,260c-1-1-14-1-15,0s3,4,8,4S437.81,261,436.81,260Z"/><path class="cls-2" d="M399.81,263c1-1-6-8-7-9s-4,0-7,3C387.81,265,398.81,264,399.81,263Z"/><path class="cls-2" d="M400.81,266c-1-1-10-1-10,0s2,3,5,3S401.81,267,400.81,266Z"/><path class="cls-2" d="M388.81,270c2-1-6-11-7-12s-7,3-7,5S386.81,271,388.81,270Z"/><path class="cls-2" d="M384.81,272c-1-2-4-3-5-2s0,4,1,4S385.81,274,384.81,272Z"/><path class="cls-2" d="M376.81,273c1-1-6-8-8-9s-6,2-5,4S375.81,274,376.81,273Z"/><path class="cls-2" d="M365.81,276c3-2-7-9-8-11s-6,2-6,4S362.81,278,365.81,276Z"/><path class="cls-2" d="M358.81,278c-4-2-11-9-12-9s-1-1-4,3C349.81,281,362.81,280,358.81,278Z"/><path class="cls-2" d="M16.5,130.5c4,1,8,8,12,8s158,2,169,2,11,0,15,5,5,9,10,20,32,13,42,15c-2,12-2,13,1,25-1,1-5.77-5.81-8-6-6,2-10,0-10-4,0,0-9,4-13-4-2-1-8,4-10-5-2-1-8,3-6-6-3-1-13,0-9-7-2-1-17,3-7-6-6-5-12-1-15-4,0-2,7-7,7-7s-139,1-142,1c-20,0-26-8-29-11C20.87,144.75,12.5,129.5,16.5,130.5Z"/><path class="cls-2" d="M31,158c6,0,8,2,41,2,4,13,24,15,33,17C52,184,29,166,31,158Z"/><path class="cls-2" d="M77,162h65l4,14-41-1S76,171,77,162Z"/><path class="cls-2" d="M147,161s35-1,39,0c2,4-34,13-36,12s-4-3-3-5c5,0,12-1,12-2s-11,0-12,0S147,161,147,161Z"/><path class="cls-2" d="M44,178c6,0,4,2,33,4,8,18,42,12,51,14C70,211,51,190,44,178Z"/><path class="cls-2" d="M82,182c7,0,65-2,65-2l5,13H108S81,191,82,182Z"/><path class="cls-2" d="M152,177c1-1,35-13,40-10,5,6-32,22-35,22s-6-3-4-5c3,0,12-3,12-4s-12,2-13,2S151,178,152,177Z"/><path class="cls-2" d="M160,193c1-1,32-21,37-18,5,6-26,29-29,29s-7-1-5-3c3,0,11-8,11-9s-12,7-13,7S159,194,160,193Z"/><path class="cls-2" d="M169,207c1-1,29-25,34-22,5,6-22,31-26,32s-7-1-5-3c3-2,11-9,11-10s-12,9-13,9S168,208,169,207Z"/><path class="cls-2" d="M179.73,219.78c.89-1.1,27-28.23,32.27-25.78,5.61,5.44-19.38,33.46-23.25,34.87S183.22,227.2,185,225c2.77-2.31,8.44-8.69,8.33-9.69S182,224.89,181,225,178.84,220.88,179.73,219.78Z"/><path class="cls-2" d="M190.69,231.55c.77-1.2,23.76-31,29.28-29.13,6.17,4.79-15.63,35.36-19.33,37.19S196,239,196,237c2.5-2.59,7.95-10.39,7.73-11.37s-10.23,10.76-11.21,11S189.93,232.74,190.69,231.55Z"/><path class="cls-2" d="M205,243c.52-1.32,18.22-34.75,24-34,7,3.5-9.73,37.48-13,40-4,0-2,0-4-1,0-2,6.05-12.82,4.53-13.91S210.92,246.6,210,247,204.48,244.32,205,243Z"/><path class="cls-2" d="M220,250c.39-1.36,12.93-36.85,18.76-36.67C246.05,216.13,236,246,231,255c-3,2-4.42.91-5-1,1.64-3.21,5-11,3.95-13.74C228,240,224.81,254,222.41,254S219.61,251.36,220,250Z"/><path class="cls-2" d="M235,257c-1-3,13-39,13-39s5-1,6,1-4,39-6,41-1,1-5,1c-1-1,4-17,3-18s-1-1-2,0-3,17-4,17S236,260,235,257Z"/><path class="cls-2" d="M252,262c-1.3-2.88,7-40,7-40s5.67-1.74,6.87.15S265.79,259.81,264,262s-1,1.59-5,2c-1.1-.89,2.1-18.11,1-19s-1.11-1.1-2,0-1,17.9-2,18S253.3,264.88,252,262Z"/><path class="cls-2" d="M194,169c0-2,0-2,2-2s3,1,3,2-1,3-2,3A3.19,3.19,0,0,1,194,169Z"/><path class="cls-2" d="M200,178c0-2,6-4,7-3s-2,7-4,7S200,180,200,178Z"/><path class="cls-2" d="M206,185c1-2,7-4,9-3s-3,8-5,8S205,187,206,185Z"/><path class="cls-2" d="M213,192c1-2,8-6,9-4s-4,9-5,9S212,194,213,192Z"/><path class="cls-2" d="M220,198c1-2,8-7,9-4s-1,8-3,9S219,200,220,198Z"/><path class="cls-2" d="M228,205c0-2,6-11,8-10s0,12-2,13S228,207,228,205Z"/><path class="cls-2" d="M237,209c0-3,5-11,8-11s2,14,1,15S237,212,237,209Z"/><path class="cls-2" d="M248,213c0-3,6-12,9-10s1,11,0,12S248,216,248,213Z"/><path class="cls-2" d="M259,218c-1-2,1-9,4-11s4,11,3,12S260,220,259,218Z"/><path class="cls-2" d="M65,199c9,4,17,6,27,6,4,7,24,10,39,9-6.56,4.58-31,6-40,5S57,199,65,199Z"/><path class="cls-2" d="M97,203s53-8,57-7,2,7,7,13c-1,4-38,1-50,2C98,209.71,96.93,203,97,203Z"/><path class="cls-2" d="M115,220s43-9,48-8,8,7,8,9-10,2-28,5C128.89,229.77,115.07,220,115,220Z"/><path class="cls-2" d="M92,223c1-1,12,0,21,0,5.34,6.23,29.93,3.83,36,5-3,5-8,6-26,8S91,224,92,223Z"/><path class="cls-2" d="M134,237s36-13,39-13,4,2,9,7C142,249,134,237,134,237Z"/><path class="cls-2" d="M116,239c16,1,17,4,27,4,3,3,6,4,7,6-3.47,2.21-8,3-14,3S116,240,116,239Z"/><path class="cls-2" d="M151,245c3-2,28-11,30-11s2,1,6,4C168,257,148,247,151,245Z"/><path class="cls-2" d="M143,253c10,1,25-2,30-3s-6,7-14,8S143,256,143,253Z"/><path class="cls-2" d="M172,257c-2-1,15-15,18-15s4,2,7,5C193,256,174,258,172,257Z"/><path class="cls-2" d="M185,259c15-3,13-9,16-10s6,1,7,4C198,264,180,261,185,259Z"/><path class="cls-2" d="M185,263c6,1,13-1,16-1s-5,5-9,5S179,262,185,263Z"/><path class="cls-2" d="M167,260c1-1,14-1,15,0s-3,4-8,4S166,261,167,260Z"/><path class="cls-2" d="M204,263c-1-1,6-8,7-9s4,0,7,3C216,265,205,264,204,263Z"/><path class="cls-2" d="M203,266c1-1,10-1,10,0s-2,3-5,3S202,267,203,266Z"/><path class="cls-2" d="M215,270c-2-1,6-11,7-12s7,3,7,5S217,271,215,270Z"/><path class="cls-2" d="M219,272c1-2,4-3,5-2s0,4-1,4S218,274,219,272Z"/><path class="cls-2" d="M227,273c-1-1,6-8,8-9s6,2,5,4S228,274,227,273Z"/><path class="cls-2" d="M238,276c-3-2,7-9,8-11s6,2,6,4S241,278,238,276Z"/><path class="cls-2" d="M245,278c4-2,11-9,12-9s1-1,4,3C254,281,241,280,245,278Z"/></g><g id="Шар_6" data-name="Шар 6"><path class="cls-4" d="M527.87,60.89s4.54,6,9.31,6.46,10-3.9,10.32-4.68.25-2.65-.28-2.7-1.26,2-2.34,2.2-4.71-1.23-6.83-1.43-4.34.68-5.67.56-2.67-2.92-3.47-3S527.87,60.89,527.87,60.89Z"/><path class="cls-5" d="M536.94,64.12c.94-1.52,3.33-21.26,1.86-20.43-3.21,0-12-6.17-12.08-8.32,3.74-.48,11.89,1.62,12.73,1.16s1.38-15.12,1.38-15.12,1.28-8.18-2.17-8.49S527.56,20.2,525,25.05s-4.05,15.14-4.05,15.14S536,65.64,536.94,64.12Z"/><path class="cls-5" d="M538.91,64.5c-.69-1.64,0-21.51,1.36-20.46,3.17.47,12.82-4.23,13.23-6.33-3.62-1.06-12-.27-12.76-.85s1-15.15,1-15.15,0-8.28,3.47-8,9.82,8.93,11.61,14.12,1.63,15.59,1.63,15.59S539.6,66.15,538.91,64.5Z"/><path class="cls-1" d="M538.39,12.89c.15-1.59,1.91-6.24,3.23-6.12s3,6,2.88,7-2.28,13.75-3.36,13.48S538.25,14.49,538.39,12.89Z"/><path class="cls-6" d="M540.91,7.1c-.44.63-1.27,24.36-1.27,24.36l-2.7,32.66s.15,1.35.68,1.4,1.15-1,1.15-1l3-32.89s.9-23.38.65-24.24A.81.81,0,0,0,540.91,7.1Z"/><path class="cls-5" d="M524.64,64.07c.92-1.25.51-8.51.77-11.43a34,34,0,0,0,.51-5.57c-2.22-5-2-10.08.53-11.72-2.34-3.69-.53-14.14-.41-19-6-4-8.73-7-11.4-15.75-1.43.94-.13,19,.43,21.7,1.13,8.13,1.95,10.88,4.27,11.89.26,3-.73,5.71-.66,9S520.08,61.25,524.64,64.07Z"/><path class="cls-5" d="M550.11,66.39c-.77-1.35,1.44-7.64,1.5-10.57a27.86,27.86,0,0,1,.35-5.93c2.75-4.74,3.12-9.8.75-11.71,2.74-3.41,2.68-14.82,3.09-19.69,6.46-3.34,8.85-5.12,12.48-13.58,1.31,1.09-2,18.88-2.81,21.53-2,8-3.14,10.6-5.55,11.35-.59,2.92.09,5.75-.34,9S555,64.08,550.11,66.39Z"/></g></svg>