<svg xmlns="http://www.w3.org/2000/svg" viewBox="0 0 600 600"><defs><style>.cls-1{fill:#3f3f3f;}.cls-2,.cls-3{fill:#fac042;}.cls-3{font-size:140px;font-family:MyriadPro-Regular, Myriad Pro;letter-spacing:0.19em;}.cls-4,.cls-5{fill:#6b6b6b;}.cls-5,.cls-6{stroke:#000;stroke-miterlimit:10;stroke-width:0.5px;}.cls-6{fill:#848484;}</style></defs><title>background-7</title><g id="Шар_7" data-name="Шар 7"><path class="cls-1" d="M512.53,145.9c.86-2.54,6.79-20,6.73-21.05,0-.23,4.63-8.49,8-8.37,8.11.28,20.28,2.38,27.23,3.54,2.31.39,4,8,4,8.4a169.18,169.18,0,0,0,1.76,21.82c-5.43,1-14-1.3-22.82-2.07S519.43,148.13,512.53,145.9Z"/></g><g id="фасція"><polyline class="cls-2" points="297.85 271.93 306.27 272.1 308.89 340.16 301.63 353.02 296.87 340.92 297.85 271.93"/><text class="cls-3" transform="translate(103.41 551.4)">SPQR</text><path class="cls-2" d="M359.16,327.18c3.53.73,7.08,2.08,6,.12-2.29-4.14-24.82-58.51-24.82-58.51a7.25,7.25,0,0,0-3.08,3.93C335.84,276.84,354.8,326.28,359.16,327.18Z"/><path class="cls-2" d="M334.16,277.66c.94-1.05,5.06-.85,4,.08-2.34,2.06,16.88,54.71,20,55.05,1.38.14-5.65.58-8.13-.79S332.73,279.26,334.16,277.66Z"/><path class="cls-2" d="M248.16,325.93c-1,2,2.82,2.75,5,2.1s16.2-47.39,15-48.71c-.95-1-4-.08-4-.08C265.87,279.91,248.89,324.55,248.16,325.93Z"/><path class="cls-2" d="M238.19,324.73c-1,.13,3.16,2.17,4.94,3.1,2.43,1.27,24.53-50.17,23.09-53.55-.88-2-5-2.51-5-1.1C261.23,275.1,239.14,324.6,238.19,324.73Z"/><path class="cls-2" d="M339.78,345.79l8,.16s-5.51-24.11-8.51-24.17C336.21,324.71,339.78,345.79,339.78,345.79Z"/><path class="cls-2" d="M252.78,345c0-1,7.5-24.86,10.5-24.8s-1.5,25-2.5,25S252.76,346,252.78,345Z"/><path class="cls-2" d="M304.77,346.08c0-1,1.24-12,5.26-12.9s22-.55,25,.51,4.93,3.1,4.91,4.1,1.82,9,.82,9-3,.94-4-.08-.84-8-2.82-9.06-19-1.38-22-.45-4.18,8.92-4.18,8.92S304.75,347.08,304.77,346.08Z"/><path class="cls-2" d="M261.82,343.21c0-1,1.24-12,5.26-12.9s22-.55,25,.51,4.94,3.1,4.92,4.1,1.82,9,.82,9-3,.94-4-.08-.84-8-2.82-9.06-19-1.39-22-.45-4.18,8.92-4.18,8.92S261.8,344.21,261.82,343.21Z"/><path class="cls-2" d="M373.94,387.49c2,1,12.16,2.25,14.1.29s.18-14,1.2-15S398,386,400,387s6.82.5,7.94-1.16-15.49-21-16.45-23,.26-13-.72-14-13-.26-14,.72,4.8,10.1,4.74,13.1S372,386.45,373.94,387.49Z"/><path class="cls-2" d="M354.84,343.1c-.81-1.16,3-.94,5,.1s-.85,42-2.87,42.95-9.32.34-8-.17C350.11,385.55,355.93,344.65,354.84,343.1Z"/><path class="cls-2" d="M281,381.61c15-11,24.88-23.71,33.75-36.33,0,0,7-.85,7,1.15s-25.7,34.48-29.72,35.4S281,381.61,281,381.61Z"/><path class="cls-2" d="M252.84,342c-2-2-3.41-2.23-7.83-.45-6,2.4-5.6,39.4-2,41.26,2.51,1.29,8,2.16,9,.18C248.07,379.94,247.78,344.93,252.84,342Z"/><path class="cls-2" d="M221,383.39c-5.57-1.27-3.26-40.81.86-42,.67,0-5-1.1-7-.14-7.14,6.85-9.63,30.81-2.85,41.95C219,385.35,221,383.39,221,383.39Z"/><path class="cls-2" d="M170.94,385.38c-7,.85,7.16-7.86,11.2-9.78s270,4.47,270,4.47l-.14,7S189.06,379.74,184,380.64,178,384.52,170.94,385.38Z"/><path class="cls-2" d="M181.39,363.58c-6-.12-14.24,11.72-10.24,11.8,7.08-3.86,6.14-6.88,10.14-6.8s263.9,7.35,263.94,5.35-13.87-6.28-13.87-6.28S187.39,363.7,181.39,363.58Z"/><polygon class="cls-2" points="177.61 352.5 442.58 356.88 442.46 362.88 175.53 356.46 177.61 352.5"/><path class="cls-2" d="M174,335.43c2,0,4.91,4.1,7.89,5.16s245.93,6,248,5,5.12-5.9,7.08-3.86-2.18,9-5.2,9.89-245.95-5-249.93-6.06-7.89-5.16-8.87-6.18S172,335.39,174,335.43Z"/></g><g id="вінок"><path class="cls-2" d="M413.88,343.29c2,0,8-1.84,9.06-2.81s-1.84-8-1.7-15C416.26,324.34,413,335.27,413.88,343.29Z"/><polygon class="cls-2" points="302.53 313.26 367.75 336.14 368 323.11 411.85 336.6 404.11 348.27 437.42 359.57 436.28 346.81 486.51 359.75 480.7 370.3 519.28 382.7 518.71 372.71 557.56 382.89 553.38 372.92 583.09 391.44 547.6 394.29 558.4 387.05 522.6 377.7 524.01 388.23 474.61 372.25 480.69 363.09 442.39 352.07 442.14 365.11 398.29 351.61 407.14 338.28 372.73 328.64 372.48 341.68 300.04 318.81 302.53 313.26"/><polygon class="cls-2" points="301.45 314.01 368.78 298.37 362 287.23 406.26 275.12 405.98 289.12 440.15 280.81 432.36 270.65 481.69 254.65 482.45 266.67 521.66 256.46 515.83 248.34 554.08 236.11 545.2 229.93 580.22 229.64 551.78 251.07 557.02 239.17 521.78 250.46 528.62 258.6 478.35 271.58 478.57 260.59 440.33 271.81 447.11 282.95 402.86 295.06 403.18 279.06 368.96 289.37 375.74 300.51 302.33 320.03 301.45 314.01"/><path class="cls-2" d="M366.3,75.27c0-2-11.72-12.08-15.77-11.32-6.62,1.25-19.87-6.4-21.91-4.44s7.77,11.16,13.71,14.28C348.29,75.91,366.26,77.27,366.3,75.27Z"/><path class="cls-2" d="M386,90.67c1-1-6.86-7.14-12.82-9.26s-23.95-2.48-29-.58c-3.06,2.93,11.79,10.24,19.75,12.4S385,91.65,386,90.67Z"/><path class="cls-2" d="M409.75,103.16c0-2-6.84-8.14-15.86-7.32s-27.07,3.45-27.13,6.45,10.85,7.22,24.81,9.5C405.59,111.08,409.71,105.16,409.75,103.16Z"/><path class="cls-2" d="M432.34,123.62c0,1-11.14,6.78-21.12,5.57s-25.87-6.52-22.81-9.46,13-1.74,24.13-6.51C424.56,112.46,432.36,122.62,432.34,123.62Z"/><path class="cls-2" d="M444,138.86c-2,1-17,1.66-22,.56s-11.89-5.25-9.87-6.21,11,.23,11,.23,9.1-4.82,13.07-3.74S446.05,137.9,444,138.86Z"/><path class="cls-2" d="M481.1,283.64c.18-9-6.67-16.14-9.61-19.2-3-1.06-13.06,2.74-17.1,4.66-2.26,5.23,20.32,19.31,19.65,17.4C474,286.5,478,289.58,481.1,283.64Z"/><path class="cls-2" d="M471.62,307.46c2.06-3-.74-13-2.68-16.06S452.29,274.06,450.31,273s-4-.08-4,1.91,4.88,6.11,4.86,7.1-3,.94-4.08,3.92c-1.16,8,12.57,21.26,14.55,22.3S469.56,310.41,471.62,307.46Z"/><path class="cls-2" d="M460.17,329.23c3.17-7.94,1.33-16-1.61-19S445,289.91,439,288.79s.55,22,1.49,25S457,337.17,460.17,329.23Z"/><path class="cls-2" d="M446.87,344C439,338.8,434,339.7,429.1,332.6c-2.92-4.06-4.45-27.1-1.43-28a59.19,59.19,0,0,0,15.63,18.32S453,336.08,446.87,344Z"/><path class="cls-2" d="M327.72,399.56c-1-2,5.24-11.9,7.26-12.86s7,.14,12,.24c2.92,4.06,14,1.29,14,1.29s-10.18,8.79-15.2,9.69S328.68,401.58,327.72,399.56Z"/><path class="cls-2" d="M474.48,363.53s-1.1,5-4.16,7.91c-11,1.78-22-1.44-25.89-5.52-2-2,.18-9,1.22-11C447.67,354,474.48,363.53,474.48,363.53Z"/><path class="cls-2" d="M345.69,55.85c3.12-5.94-7.67-16.16-9.63-18.2s-13.79-10.28-16.81-9.34c-.83,6.62,6.79,10.14,8.67,16.18S342.57,61.79,345.69,55.85Z"/><path class="cls-2" d="M369.57,62.34C371.87,50.52,351.2,31,339.2,30.71c-5.08,3.9,8.72,14.18,10.57,21.22C347.68,49.15,367.86,71.1,369.57,62.34Z"/><path class="cls-2" d="M390.3,75.76c2-1-2.7-15.06-4.6-20.1S369,39.32,367,39.28s3.74,13.08,5.6,20.12S388.28,76.72,390.3,75.76Z"/><path class="cls-2" d="M414,93.24c2,0,.26-13-.62-19S394.82,49.85,391.8,50.78s1.6,20,4.48,26.1C400.17,82,404.13,84,414,93.24Z"/><path class="cls-2" d="M435.52,114.68c2.12-6,1.4-20,.51-25S419.52,65.35,417.5,66.31s.55,22,1.43,28C424.89,96.46,427.58,111.52,435.52,114.68Z"/><path class="cls-2" d="M453.13,134c3,.07,5.38-18.89,3.55-26.93s-11.56-22.24-13.55-22.28-5.23,10.9-3.51,24.94,8.61,19.17,8.61,19.17S450.13,134,453.13,134Z"/><path class="cls-2" d="M457,139.13c.65-.86,16.88,2.2,16.3-14.68-.62-18.12-11.17-25.38-11.49-25.24C462,115.74,460.38,122.82,457,139.13Z"/><path class="cls-2" d="M471,139.41c2,1,9,.18,11,.22s4.16-7.92,4.2-9.91-3.79-10.08-4.71-14.1c-4-2.08-4.2,9.91-5.28,13.89S469.05,138.37,471,139.41Z"/><path class="cls-2" d="M494.61,258.91c2,2,14.05-2.71,19.13-6.61.15-7-.79-10,7.23-10.86s9.38-18.81,7.38-18.85c-9.16,7.81-21.24,11.57-24.3,14.51S493.73,252.89,494.61,258.91Z"/><path class="cls-2" d="M492.36,286c13.33,5.13,31.27-15.52,33.44-24-9.85,5.43-18.74,3.69-23.19,7.65C499.35,272.58,486,283.58,492.36,286Z"/><path class="cls-2" d="M484.57,309.72c15.5,7.06,38.34-16.23,41.54-26.16-12.12,5.75-22.57,3-28.15,7.43C493.86,294.21,477.14,306.33,484.57,309.72Z"/><path class="cls-2" d="M477.3,329.07c19.2,7.45,44.55-10.16,43.66-20.15-12.47,4.75-20,1.74-28.73,4C483.59,316.09,473.51,323.54,477.3,329.07Z"/><path class="cls-2" d="M463.81,347.31c17.79,10.36,45.59-3.07,46.27-13.07-13.06,2.74-20-1.4-29-.59C472.05,335.47,460.93,341.25,463.81,347.31Z"/><path class="cls-2" d="M447.28,373c-8.77.06-9-1.38-16.09,4.67,7.59,20.16,42.22,8.89,43.95,2.89C464.23,380.87,456.06,372.91,447.28,373Z"/><path class="cls-2" d="M426.43,387.2c-9.78-1.21-12.79-1.11-21.53,4.6,6.28,17.92,48.47,17.35,49.31,6.73C442,397.31,436.22,388.4,426.43,387.2Z"/><path class="cls-2" d="M404.34,399.37c-9.55-2.45-12.55-2.74-21.95,1.8,3.93,18.58,45.84,23.43,48,13C418.5,411.4,413.89,401.82,404.34,399.37Z"/><path class="cls-2" d="M357.59,406.16c10-3.11,19,.48,22,1.45,14.07,6.85,4.55,11.69,23.63,18.48C389.86,436.57,357,421.73,357.59,406.16Z"/><path class="cls-2" d="M328.56,407.58c10.06-2.8,15-.7,18,.36,13.86,7.28,7.76,12.16,26.61,19.54C359.51,437.54,327.51,423.11,328.56,407.58Z"/><path class="cls-2" d="M283.84,442.68c14.5-24.71,11.38-18.78,42.74-36.14,21.52-2.57,39.06-2.83,56.19-8.87,119-50.19,137.1-162.16,77.09-250.49C435.45,111.25,395.48,78,347.67,56.89c-4.35,5.87-4.06,2.92-4.06,2.92,85.9,34.44,132.91,104.72,142.46,175.92,6.16,80.75-48.37,157.81-162.39,165.75-14-1.29-52.71,26.07-49.7,34Z"/><path class="cls-2" d="M187.87,339.71c-2,0-8-2.16-8.93-3.18s2.16-8,2.3-15C186.26,320.67,189,331.73,187.87,339.71Z"/><polygon class="cls-2" points="300.35 314.21 234.25 334.43 234.53 321.4 190.17 333.11 197.43 345.08 163.7 355.02 165.35 342.32 114.64 353.2 120.01 363.98 80.96 374.81 81.94 364.86 42.71 373.45 47.29 363.66 16.85 380.96 52.2 385.24 41.7 377.58 77.85 369.68 76.01 380.15 126.02 366.18 120.31 356.78 159.03 347.32 158.75 360.36 203.11 348.65 194.81 334.97 229.58 326.74 229.31 339.77 302.61 319.86 300.35 314.21"/><polygon class="cls-2" points="301.4 315.01 234.76 296.65 241.98 285.8 198.25 271.91 197.97 285.9 164.16 276.22 172.36 266.38 123.71 248.39 122.47 260.37 83.7 248.58 89.86 240.7 52.13 226.93 61.25 221.12 26.28 219.41 53.83 241.97 49.07 229.87 83.82 242.58 76.66 250.44 126.37 265.45 126.59 254.45 164.34 267.22 157.12 278.07 200.84 291.96 201.17 275.97 234.94 287.65 227.72 298.51 300.28 320.98 301.4 315.01"/><path class="cls-2" d="M246.28,73.84c0-2,12.2-11.6,16.22-10.67,6.56,1.51,20.11-5.6,22.07-3.56s-8.22,10.84-14.28,13.72C264.25,75.2,246.23,75.84,246.28,73.84Z"/><path class="cls-2" d="M226,88.43c-1-1,7.14-6.86,13.18-8.73s24-1.52,29,.58c2.94,3.06-12.2,9.76-20.24,11.6S227,89.45,226,88.43Z"/><path class="cls-2" d="M201.74,99.94c0-2,7.16-7.86,16.14-6.67s26.91,4.54,26.85,7.54-11.14,6.78-25.18,8.49C205.57,108,201.7,101.94,201.74,99.94Z"/><path class="cls-2" d="M178.34,119.47c0,1,10.85,7.22,20.87,6.43s26.12-5.48,23.18-8.54-13-2.26-23.86-7.48C186.56,108.64,178.36,118.47,178.34,119.47Z"/><path class="cls-2" d="M166,134.22c2,1,17,2.35,22,1.45s12.1-4.76,10.12-5.8-11-.22-11-.22-8.9-5.18-12.91-4.26S164.06,133.18,166,134.22Z"/><path class="cls-2" d="M123.12,277.38c.19-9,7.33-15.85,10.39-18.79,3-.94,12.93,3.26,16.89,5.34,2,5.32-21.08,18.48-20.34,16.6C130.06,280.53,126,283.44,123.12,277.38Z"/><path class="cls-2" d="M131.63,301.56c-1.93-3,1.27-13,3.33-15.93S152.3,269,154.32,268s4,.09,4,2.09-5.12,5.89-5.14,6.89,3,1.06,3.92,4.08c.83,8-13.43,20.73-15.45,21.69S133.57,304.6,131.63,301.56Z"/><path class="cls-2" d="M142.19,323.78c-2.84-8.06-.68-16,2.38-19S159,285.11,165,284.23s-1.44,22-2.5,25S145,331.84,142.19,323.78Z"/><path class="cls-2" d="M154.88,339c8.1-4.84,13.08-3.74,18.22-10.63,3.08-3.94,5.55-26.9,2.57-28a59.4,59.4,0,0,1-16.37,17.68S149,330.92,154.88,339Z"/><path class="cls-2" d="M271.68,399.42c1-2-4.76-12.1-6.74-13.14s-7-.14-12-.24c-3.08,3.94-14,.71-14,.71s9.82,9.21,14.79,10.31S270.64,401.4,271.68,399.42Z"/><path class="cls-2" d="M126.5,357.47s.9,5,3.84,8.08c10.95,2.22,22-.56,26.09-4.47,2-2,.19-9-.77-11C153.68,349,126.5,357.47,126.5,357.47Z"/><path class="cls-2" d="M267.66,55.27C264.78,49.21,276,39.43,278,37.47s14.2-9.71,17.18-8.65c.56,6.65-7.2,9.86-9.32,15.82S270.53,61.33,267.66,55.27Z"/><path class="cls-2" d="M243.54,60.78c-1.83-11.9,19.62-30.61,31.62-30.36,4.92,4.1-9.28,13.81-11.42,20.77C265.94,48.49,244.89,69.6,243.54,60.78Z"/><path class="cls-2" d="M222.28,73.35c-2-1,3.3-14.93,5.4-19.89S245,37.81,247,37.85s-4.27,12.91-6.41,19.87S224.26,74.39,222.28,73.35Z"/><path class="cls-2" d="M197.94,89.86c-2,0,.26-13,1.39-19s19.48-23.61,22.46-22.55-2.41,20-5.53,25.89C212.16,79.15,208.12,81.07,197.94,89.86Z"/><path class="cls-2" d="M175.52,110.41c-1.88-6-.6-20,.51-25s17.48-23.65,19.46-22.61-1.45,22-2.57,28C186.88,92.64,183.58,107.57,175.52,110.41Z"/><path class="cls-2" d="M157.14,129c-3-.06-4.62-19.09-2.45-27s12.44-21.75,14.44-21.71,4.77,11.1,2.49,25-9.38,18.82-9.38,18.82S160.14,129.1,157.14,129Z"/><path class="cls-2" d="M153,134c-.62-.88-17,1.52-15.7-15.32,1.36-18.09,12.19-24.91,12.51-24.75C149,110.4,150.35,117.53,153,134Z"/><path class="cls-2" d="M139,133.68c-2,1-9-.19-11-.23s-3.83-8.08-3.79-10.07,4.2-9.92,5.28-13.9c4-1.92,3.8,10.08,4.71,14.1S141.06,132.72,139,133.68Z"/><path class="cls-2" d="M110.63,252.13c-2,2-13.93-3.29-18.85-7.39.14-7,1.2-10-6.78-11.14s-8.61-19.18-6.61-19.14c8.84,8.18,20.75,12.43,23.69,15.49S111.75,246.15,110.63,252.13Z"/><path class="cls-2" d="M111.78,279.32C98.25,283.9,81.17,262.54,79.34,254c9.62,5.82,18.57,4.44,22.86,8.58C105.34,265.59,118.26,277.12,111.78,279.32Z"/><path class="cls-2" d="M118.6,303.3c-15.77,6.42-37.65-17.77-40.45-27.83C90,281.71,100.59,279.42,106,284,110,287.42,126.16,300.22,118.6,303.3Z"/><path class="cls-2" d="M125.08,322.93C105.6,329.59,81,311,82.27,301c12.27,5.24,19.87,2.54,28.55,5.12C119.32,309.7,129.09,317.55,125.08,322.93Z"/><path class="cls-2" d="M137.82,341.7c-18.2,9.63-45.43-4.91-45.7-14.93,12.93,3.26,20-.6,29,.58C130.07,329.54,140.94,335.76,137.82,341.7Z"/><path class="cls-2" d="M153.29,368c8.77.42,9.09-1,15.9,5.33-8.41,19.83-42.55,7.17-44,1.11C136,375.21,144.52,367.6,153.29,368Z"/><path class="cls-2" d="M173.55,383.07c9.83-.81,12.83-.59,21.33,5.47-7,17.65-49.13,15.38-49.54,4.73C157.56,392.54,163.72,383.87,173.55,383.07Z"/><path class="cls-2" d="M195.13,396.12c9.64-2.06,12.65-2.23,21.86,2.69-4.68,18.41-46.76,21.56-48.53,11.05C180.5,407.57,185.49,398.18,195.13,396.12Z"/><path class="cls-2" d="M241.56,404.81c-9.83-3.51-19-.29-22,.56-14.34,6.26-5,11.49-24.36,17.5C208.09,433.89,241.49,420.39,241.56,404.81Z"/><path class="cls-2" d="M270.52,407.4c-9.94-3.2-15-1.31-18-.37-14.14,6.72-8.24,11.84-27.38,18.45C238.38,436.09,270.93,423,270.52,407.4Z"/><path class="cls-2" d="M313.78,444.28c-13.49-25.28-10.61-19.22-41.24-37.84-21.41-3.43-38.92-4.41-55.79-11.13-116.9-55-130.41-167.59-66.87-253.41C175.72,107,217,75.43,265.64,56.23c4.11,6,3.93,3.08,3.93,3.08-87.21,30.93-137,99.24-149.47,170C110.67,309.75,162,389,275.64,401.5c14-.71,51.61,28.19,48.28,36Z"/></g><g id="тіло"><path class="cls-2" d="M329.93,338.59c6.52-5.93,9.46-22.81,8.6-29.83a10.56,10.56,0,0,0-6-.12C336.29,320.71,328.07,335.88,329.93,338.59Z"/><path class="cls-2" d="M324.93,338.49c-2,0-2.44-28.06-1.42-29s5-.9,6,.12S326.93,338.53,324.93,338.49Z"/><path class="cls-2" d="M319.47,311.37c-1-2-.93-3-6-2.12-5.1,4.9-4.43,20.92,5.43,28.12C317.21,324.33,311.25,322.21,319.47,311.37Z"/><path class="cls-2" d="M284.93,337.68c5.24-20.75,3.57-27.94,4.59-28.92s4-.91,5,.11C295.44,312.88,290.89,339.8,284.93,337.68Z"/><path class="cls-2" d="M280,336.58c-1,0-2.46-27.06-.42-29s5-1.9,6,.12S281,336.6,280,336.58Z"/><path class="cls-2" d="M269.94,337.37c-5-1.1-3.37-31.07-2.35-32.05s5,1.1,6,2.12S268.32,318.34,269.94,337.37Z"/><path class="cls-2" d="M311.62,288.71c-2.56,13.09-6.39,18.22-5.35,19.19a72.77,72.77,0,0,1,8.42-1.26l-2.53-1.94s.87-4,1.9-3.07c.87.81.38,3.08,1.42,4.93,3.28-.3,6.62-.46,9.81-.55-1.48-1.73-3.22-4.12-3.24-4.65,0-1,4.93-2.16,5-.17.06,1.7-.61,2.71-.15,4.79,4.7-.1,9-.08,12.31-.19-6.23-6.8-9.43-12.69-9.53-15.69s3.76-7.13,4.66-10.16.46-16-.71-21-5.5-14.82-7.5-14.76c-2.63,11.1-17.55,13.6-21.45,16.74s.51,15,.51,15S311.39,281.71,311.62,288.71Zm10.16,4.66,3.07,1.9-3,.1Zm-3.16-4.9c0-1-.1-3,.86-4s4,.87,4.1,2.86.14,4-.86,4S318.65,289.47,318.62,288.47Zm-1.51-15c4,.87,5.86-4.2,6.83-5.23s-.34-10,.66-10,4.23,6.86,5.3,8.83,2.34,9.93.37,11-2.93,2.1-4,.14c3-1.1,2.76-7.1,1.69-9.06s-4,.13-4,1.13.2,6-.77,7-.93,2-1.93,2.07S316.21,276.55,317.11,273.51Zm-1.1-3c-1,1-2,.07-3,.1s-1.3-9,.7-9S317,269.52,316,270.55Zm.78,23,.1,3a10.31,10.31,0,0,1-3,1.1C312.93,297.67,316.72,291.54,316.79,293.54Zm-5.47-13.83c-1-1-2.14-3.93-1.17-5s2-.07,3,.9,2.14,3.93,2.14,3.93S312.35,280.68,311.32,279.71Z"/><path class="cls-2" d="M297.23,273.91s4.24-11.91.3-15-18.89-5.39-21.67-16.45c-2,0-6.2,9.88-7.3,14.86s-1.36,18-.43,21,4.86,7.1,4.8,10.1-3.18,8.94-9.32,15.82c3.29.06,7.61,0,12.32,0,.43-2.08-.26-3.08-.22-4.78,0-2,5-.9,5,.1,0,.53-1.72,2.95-3.18,4.7,3.2,0,6.53.15,9.82.41,1-1.87.5-4.12,1.35-4.94,1-1,1.94,3,1.94,3s-1.3,1-2.5,2a71.84,71.84,0,0,1,8.44,1.15c1-1-2.88-6.06-5.61-19.12C291.11,279.79,297.23,273.91,297.23,273.91Zm-16.4,19.67-3-.06,3-1.94Zm-.92-4c-1,0-1-2-.92-4s3.08-3.94,4.06-2.92.94,3,.92,4S280.91,289.59,279.91,289.57Zm1.24-12c-1,0-1-1-2-2s-.88-6-.86-7-2.93-3.06-4-1.08-1.17,8,1.81,9c-1,2-2,1-4-.08s-.81-9,.23-11,4.18-8.92,5.18-8.9-.18,9,.8,10,2.87,6.06,6.89,5.14C286.21,274.69,282.15,277.61,281.15,277.59Zm7.37-17.86c2,0,1.81,9,.81,9s-2,1-3-.06S286.52,259.69,288.52,259.73Zm.27,36a10.07,10.07,0,0,1-3-1.06l.06-3C285.91,289.69,289.78,295.77,288.79,295.75Zm-1.64-18s1.06-3,2.08-4,2-2,3-.94-.08,4-1.1,5S287.15,277.71,287.15,277.71Z"/><path class="cls-2" d="M333.77,247.65c2-1,2.45-22,1.51-25-6.06,2.88-3.15,6.94-8.29,13.84C325.47,237.29,331.31,248.83,333.77,247.65Z"/><path class="cls-2" d="M306.63,254.1c.1-5,6.41-19.87,6.41-19.87s5.89,5.12,13.06-2.74C328,238.53,318.59,256.34,306.63,254.1Z"/><path class="cls-2" d="M301.55,258c-5-.5-6.65-17.14-5.55-22.12,4,1.08,9,2.18,13,.26C307.74,238.38,305.9,258.43,301.55,258Z"/><path class="cls-2" d="M277.13,229.5c-3-1.06,2.81,9.06,2.81,9.06-3.08,3.93,2.76,12.05,16.7,15.34-2.84-8.06-.54-23-4.56-22.1C288,234.72,284,234.64,277.13,229.5Z"/><path class="cls-2" d="M269.27,222.34c-2,0-1.41,20-.49,24,3,1.06,7.12-5.86,8.16-7.84s-2.85-7.05-2.85-7.05S271.27,222.38,269.27,222.34Z"/><path class="cls-2" d="M324.18,227.45c-1-2,1.44-22,1.46-23s5-1.89,10-1.79C338.64,204.74,331.16,228.59,324.18,227.45Z"/><path class="cls-2" d="M316.06,233.29c-6.92-4.14-2.45-27.06-2.45-27.06s9-.82,10,.2S323,237.43,316.06,233.29Z"/><path class="cls-2" d="M301,234c-6.94-3.14-4.43-28.09-4.43-28.09l14,.28S308,237.12,301,234Z"/><path class="cls-2" d="M287.08,231.7c-6.06,2.88-8.55-22.18-6.51-24.14,2-1,11-1.77,13-.73C294.55,208.85,293.14,228.82,287.08,231.7Z"/><path class="cls-2" d="M275.23,224.46c2-1,4.4-19.92,3.44-21.94a33.93,33.93,0,0,0-7.93-3.16C265.68,202.26,266.29,221.27,275.23,224.46Z"/><path class="cls-2" d="M330.09,182.56c1-2,6.08-3.88,8.06-2.84,1,2,1.53,23-2.43,21S329.05,184.54,330.09,182.56Z"/><path class="cls-2" d="M313.05,184.22c1-1,13-1.74,14-1.72s-.47,23-5.43,20.89S312,185.19,313.05,184.22Z"/><path class="cls-2" d="M303.65,204c-6-1.12-8.6-20.18-7.57-21.16s13-.74,14,.28S309.63,205.15,303.65,204Z"/><path class="cls-2" d="M282.63,204.6c-3-.06-1.59-20-.57-21s10-1.8,12,.24S289.73,199.75,282.63,204.6Z"/><path class="cls-2" d="M266.76,198.28c-2.74-13.06,2.42-21,4.44-21.91s8,1.16,8.94,3.18C280.17,187.45,271.7,197.39,266.76,198.28Z"/><path class="cls-2" d="M320,139.35c4.1-4.92,7.16-7.86,3.39-18.94-2.9-5.06-7.8-10.16-21.8-10.44-5.94-1.12-20.86,2.53-21.16,8.46,2.74,2.44,10,8.61,10.78,10.33,1,2,1.86,7,.86,7s-.94-3-4.9-5.1c-8,.84-16,.67-18,1.63a7.66,7.66,0,0,0-3.87,3.86,11.27,11.27,0,0,1,2.81-.88c5.51-1,15-1.76,19,2.39,1.77,1.85,1.29,5.09.82,9-2.23,11-5.37,17.89-15.59,28.69-.06,3,8-1.84,11-1.78,2,1,1.86,7,5.86,7.12s8.14-6.84,9.14-6.82,3.85,7.08,6.85,7.14,1.15-7,3.15-6.93c.93,3,11.83,8.24,13.85,7.28s-1.88-6,.14-7c4,1.08,14.88,6.3,15.94,3.32S320.46,164,320,139.35Zm-23.69-15.49-3-.06a1,1,0,0,1,1-1s2-1,2-2-2-2-3-2.06-3-.06-3,1.94l0,2s-4-1.08-3.94-3.08-1-1,2-2,13,.27,16,.33C306.37,119.07,298.29,122.9,296.27,123.86Z"/><path class="cls-2" d="M268.14,130.29c3-.94,18-.63,18-1.63a71.08,71.08,0,0,1-5.19-6.2,3.2,3.2,0,0,1-1.89,1c-1.36.26-2.58-.19-2.74-1s.82-1.68,2.17-1.94a3.83,3.83,0,0,1,1-.07c-.55-.77-.88-1.25-.88-1.25-5,1-18.76,3.42-16.65,17.95C262,137.17,265.12,131.23,268.14,130.29Z"/></g><g id="Крила"><path class="cls-2" d="M589.39,136.31c-4,.92-8.16,7.83-12.16,7.75s-158-1.2-169-1.42-11-.23-15.09,4.69-5.19,8.9-10.41,19.79-32.25,12.35-42.29,14.15c1.75,12,1.73,13-1.51,25,1,1,5.89-5.69,8.12-5.83,6,2.12,10,.2,10.08-3.8,0,0,8.92,4.18,13.08-3.73,2-1,7.91,4.16,10.1-4.8,2-1,7.93,3.16,6.12-5.88,3-.94,13,.27,9.14-6.81,2-1,16.93,3.34,7.12-5.86,6.1-4.88,12-.76,15.08-3.7,0-2-6.86-7.14-6.86-7.14s139,3.82,142,3.88c20,.41,26.16-7.47,29.22-10.41C584.73,150.46,593.41,135.39,589.39,136.31Z"/><path class="cls-2" d="M574.33,163.51c-6-.12-8,1.84-41,1.17C529,177.59,509,179.19,500,181,552.81,189.08,576.17,171.55,574.33,163.51Z"/><path class="cls-2" d="M528.26,166.57l-65-1.31L459,179.17l41-.17S529.08,175.59,528.26,166.57Z"/><path class="cls-2" d="M458.3,164.16s-35-1.71-39-.79c-2.08,3.95,33.73,13.68,35.75,12.72s4.06-2.92,3.1-4.94c-5-.1-12-1.24-12-2.24s11,.22,12,.24S458.3,164.16,458.3,164.16Z"/><path class="cls-2" d="M560.93,183.24c-6-.12-4,1.92-33.07,3.33-8.37,17.83-42.24,11.15-51.28,13C534.27,215.71,553.69,195.1,560.93,183.24Z"/><path class="cls-2" d="M522.86,186.47c-7-.14-64.95-3.32-64.95-3.32l-5.26,12.9,44,.89S523.68,195.49,522.86,186.47Z"/><path class="cls-2" d="M453,180.05c-1-1-34.72-13.71-39.78-10.81-5.13,5.9,31.54,22.65,34.54,22.71s6.06-2.88,4.1-4.92c-3-.06-11.93-3.24-11.91-4.24s11.95,2.24,12.95,2.26S454,181.07,453,180.05Z"/><path class="cls-2" d="M444.65,195.89c-1-1-31.57-21.65-36.63-18.75-5.12,5.9,25.41,29.52,28.41,29.58s7-.86,5.06-2.9c-3-.06-10.84-8.22-10.81-9.22s11.85,7.24,12.85,7.26S445.63,196.91,444.65,195.89Z"/><path class="cls-2" d="M435.37,209.7c-1-1-28.49-25.58-33.55-22.68-5.12,5.89,21.37,31.44,25.35,32.52s7-.86,5.06-2.9c-3-2.06-10.82-9.22-10.8-10.22s11.82,9.24,12.82,9.26S436.35,210.72,435.37,209.7Z"/><path class="cls-2" d="M424.38,222.26c-.86-1.12-26.4-28.77-31.74-26.43-5.71,5.32,18.7,33.84,22.55,35.34s5.55-1.56,3.82-3.8c-2.73-2.36-8.26-8.86-8.14-9.85S422,227.33,423,227.45,425.25,223.38,424.38,222.26Z"/><path class="cls-2" d="M413.18,233.8c-.74-1.2-23.12-31.47-28.68-29.72-6.26,4.67,14.92,35.68,18.57,37.58s4.66-.51,4.7-2.51c-2.45-2.65-7.74-10.56-7.5-11.53s10,11,11,11.2S413.92,235,413.18,233.8Z"/><path class="cls-2" d="M398.65,245c-.49-1.32-17.51-35.11-23.31-34.48-7,3.36,9,37.68,12.19,40.26,4,.08,2,0,4-.92,0-2-5.8-12.94-4.25-14s5.36,12.62,6.27,13S399.14,246.29,398.65,245Z"/><path class="cls-2" d="M383.51,251.66c-.36-1.37-12.18-37.11-18-37-7.35,2.66,2.09,32.72,6.91,41.82,3,2.06,4.4,1,5-.89-1.58-3.25-4.78-11.1-3.67-13.83,1.95-.21,4.86,13.86,7.26,13.9S383.87,253,383.51,251.66Z"/><path class="cls-2" d="M368.37,258.35c1.06-3-12.21-39.25-12.21-39.25s-5-1.1-6,.87,3.21,39.08,5.17,41.12,1,1,5,1.1c1-1-3.65-17.08-2.63-18.06s1-1,2,0,2.65,17.06,3.65,17.08S367.31,261.33,368.37,258.35Z"/><path class="cls-2" d="M351.27,263c1.36-2.86-6.19-40.14-6.19-40.14s-5.63-1.85-6.87,0-.68,37.65,1.06,39.88,1,1.62,5,2.1c1.12-.87-1.73-18.14-.61-19s1.13-1.08,2,0,.64,17.91,1.63,18S349.91,265.86,351.27,263Z"/><path class="cls-2" d="M411.15,171.2c0-2,0-2-2-2s-3,.94-3,1.94.94,3,1.94,3A3.2,3.2,0,0,0,411.15,171.2Z"/><path class="cls-2" d="M405,180.08c0-2-5.91-4.12-6.93-3.14s1.85,7,3.85,7.08S404.92,182.08,405,180.08Z"/><path class="cls-2" d="M398.82,187c-1-2-6.91-4.14-8.93-3.18s2.83,8.06,4.83,8.1S399.78,189,398.82,187Z"/><path class="cls-2" d="M391.68,193.81c-1-2-7.87-6.16-8.91-4.18s3.81,9.08,4.81,9.1S392.64,195.83,391.68,193.81Z"/><path class="cls-2" d="M384.56,199.67c-1-2-7.85-7.16-8.91-4.18s.83,8,2.81,9.06S385.52,201.69,384.56,199.67Z"/><path class="cls-2" d="M376.42,206.5c0-2-5.77-11.11-7.79-10.16s-.25,12,1.73,13S376.38,208.5,376.42,206.5Z"/><path class="cls-2" d="M367.34,210.32c.06-3-4.77-11.1-7.77-11.16s-2.29,14-1.31,15S367.28,213.32,367.34,210.32Z"/><path class="cls-2" d="M356.26,214.1c.07-3-5.75-12.12-8.79-10.18s-1.22,11-.24,12S356.2,217.1,356.26,214.1Z"/><path class="cls-2" d="M345.17,218.87c1-2-.82-9-3.78-11.08s-4.22,10.92-3.24,11.94S344.13,220.85,345.17,218.87Z"/><path class="cls-2" d="M539.51,203.81a62.64,62.64,0,0,1-27.12,5.45c-4.14,6.92-24.19,9.51-39.17,8.21,6.47,4.71,30.87,6.63,39.89,5.81S547.51,204,539.51,203.81Z"/><path class="cls-2" d="M507.44,207.16s-52.83-9.07-56.85-8.15-2.14,7-7.26,12.85c.92,4,38,1.77,49.95,3C506.27,213.85,507.51,207.15,507.44,207.16Z"/><path class="cls-2" d="M489.1,223.79s-42.81-9.87-47.83-9-8.14,6.84-8.18,8.84,10,2.2,27.89,5.56C475,233.28,489,223.77,489.1,223.79Z"/><path class="cls-2" d="M512,227.26c-1-1-12-.25-21-.43-5.47,6.12-30,3.23-36.09,4.27,2.9,5.06,7.88,6.16,25.83,8.53S513,228.28,512,227.26Z"/><path class="cls-2" d="M469.75,240.4S434,226.68,431,226.62s-4,1.91-9.14,6.81C461.51,252.24,469.75,240.4,469.75,240.4Z"/><path class="cls-2" d="M487.71,242.77c-16,.67-17.08,3.65-27.08,3.45-3.06,2.94-6.08,3.88-7.12,5.86,3.42,2.27,7.94,3.16,13.94,3.28S487.69,243.77,487.71,242.77Z"/><path class="cls-2" d="M452.6,248.06c-3-2.06-27.78-11.57-29.78-11.61s-2,1-6.07,3.88C435.36,259.71,455.55,250.12,452.6,248.06Z"/><path class="cls-2" d="M460.43,256.22c-10,.8-24.95-2.51-29.93-3.61s5.86,7.12,13.83,8.28S460.37,259.22,460.43,256.22Z"/><path class="cls-2" d="M431.36,259.63c2-1-14.7-15.3-17.7-15.36s-4,1.92-7.1,4.85C410.38,258.2,429.34,260.59,431.36,259.63Z"/><path class="cls-2" d="M418.32,261.37c-14.94-3.31-12.82-9.27-15.8-10.33s-6,.88-7.07,3.86C405.22,266.1,423.28,263.47,418.32,261.37Z"/><path class="cls-2" d="M418.24,265.36c-6,.88-13-1.26-16-1.32s4.9,5.1,8.9,5.18S424.26,264.49,418.24,265.36Z"/><path class="cls-2" d="M436.29,262.73c-1-1-14-1.28-15-.3s2.92,4.06,7.92,4.16S437.27,263.75,436.29,262.73Z"/><path class="cls-2" d="M399.24,265c1-1-5.83-8.12-6.81-9.14s-4-.08-7.06,2.86C387.2,266.74,398.22,266,399.24,265Z"/><path class="cls-2" d="M400.18,268c-1-1-10-1.2-10-.2s1.94,3,4.94,3.1S401.16,269,400.18,268Z"/><path class="cls-2" d="M388.1,271.75c2-.95-5.77-11.11-6.75-12.13s-7.06,2.85-7.1,4.85S386.08,272.71,388.1,271.75Z"/><path class="cls-2" d="M384.06,273.67c-1-2-3.94-3.08-5-2.1s-.08,4,.92,4S385,275.69,384.06,273.67Z"/><path class="cls-2" d="M376,274.51c1-1-5.83-8.12-7.81-9.16s-6,1.88-5.08,3.9S375,275.49,376,274.51Z"/><path class="cls-2" d="M365,277.29c3-1.94-6.82-9.14-7.78-11.16s-6,1.88-6.08,3.87S362,279.23,365,277.29Z"/><path class="cls-2" d="M358,279.15c-4-2.09-10.82-9.23-11.82-9.25s-1-1-4.06,2.92C348.89,282,361.9,281.23,358,279.15Z"/><path class="cls-2" d="M18.7,124.74c4,1.08,7.83,8.16,11.83,8.24s157.93,5.2,168.93,5.42,11,.23,14.89,5.31,4.82,9.1,9.59,20.19,31.73,13.65,41.69,15.85c-2.24,12-2.26,13,.49,25-1,1-5.65-5.93-7.87-6.16-6,1.88-10-.21-9.92-4.2,0,0-9.08,3.81-12.91-4.27-2-1-8.08,3.84-9.9-5.2-2-1-8.06,2.84-5.88-6.12-3-1.06-13-.26-8.85-7.18-2-1-17.06,2.65-6.88-6.14-5.9-5.12-12-1.24-14.92-4.3,0-2,7.14-6.86,7.14-6.86s-139-1.82-142-1.88c-20-.41-25.83-8.53-28.77-11.59C22.78,139.07,14.72,123.65,18.7,124.74Z"/><path class="cls-2" d="M32.64,152.52c6,.13,8,2.17,41,2.83,3.73,13.08,23.69,15.49,32.65,17.67C53.1,178.94,30.47,160.48,32.64,152.52Z"/><path class="cls-2" d="M78.55,157.46l65,1.31,3.72,14.08-41-1.83S77.36,166.43,78.55,157.46Z"/><path class="cls-2" d="M148.55,157.87s35-.29,39,.8c1.92,4-34.25,12.3-36.23,11.26s-3.94-3.08-2.9-5.06c5,.1,12-.75,12-1.75s-11-.23-12-.25S148.55,157.87,148.55,157.87Z"/><path class="cls-2" d="M45.23,172.78c6,.12,4,2.08,32.91,4.67,7.63,18.16,41.75,12.85,50.71,15C70.55,206.3,52,184.92,45.23,172.78Z"/><path class="cls-2" d="M83.14,177.55c7,.14,65-.68,65-.68L152.9,190l-44-.89S82,186.53,83.14,177.55Z"/><path class="cls-2" d="M153.23,174c1-1,35.25-12.28,40.19-9.18,4.88,6.1-32.44,21.34-35.44,21.28S152,183,154.08,181c3,.06,12.06-2.75,12.08-3.75s-12,1.75-13,1.73S152.21,175,153.23,174Z"/><path class="cls-2" d="M160.9,190.13c1-1,32.42-20.35,37.36-17.24,4.87,6.1-26.59,28.46-29.58,28.4s-7-1.14-4.94-3.1c3,.06,11.16-7.77,11.18-8.77s-12.14,6.75-13.14,6.73S159.88,191.11,160.9,190.13Z"/><path class="cls-2" d="M169.61,204.31c1-1,29.51-24.41,34.44-21.3,4.88,6.1-22.62,30.54-26.64,31.46s-7-1.14-4.94-3.1c3-1.94,11.18-8.77,11.2-9.77s-12.18,8.75-13.18,8.73S168.59,205.29,169.61,204.31Z"/><path class="cls-2" d="M180.08,217.3c.91-1.08,27.55-27.67,32.79-25.11,5.49,5.55-20.06,33.05-24,34.39s-5.49-1.78-3.66-4c2.81-2.25,8.61-8.52,8.53-9.52s-11.54,9.36-12.53,9.44S179.17,218.39,180.08,217.3Z"/><path class="cls-2" d="M190.81,229.29c.78-1.17,24.37-30.5,29.86-28.53,6.07,4.92-16.35,35-20.08,36.8s-4.63-.71-4.59-2.71c2.56-2.54,8.16-10.23,8-11.21s-10.45,10.55-11.43,10.74S190,230.47,190.81,229.29Z"/><path class="cls-2" d="M204.88,241c.54-1.3,18.91-34.37,24.68-33.5,6.91,3.63-10.49,37.27-13.81,39.73-4-.09-2,0-4-1.09,0-2,6.32-12.69,4.81-13.81s-5.86,12.39-6.78,12.77S204.33,242.34,204.88,241Z"/><path class="cls-2" d="M219.73,248.34c.42-1.36,13.67-36.59,19.5-36.29,7.23,2.95-3.42,32.61-8.6,41.51-3,1.94-4.44.82-5-1.1,1.71-3.18,5.22-10.9,4.23-13.66-1.95-.3-5.42,13.65-7.82,13.59S219.32,249.69,219.73,248.34Z"/><path class="cls-2" d="M234.59,255.64c-.94-3,13.79-38.73,13.79-38.73s5-.9,6,1.12-4.79,38.91-6.83,40.87-1,1-5,.9c-1-1,4.35-16.91,3.37-17.93s-1-1-2-.05-3.34,16.94-4.34,16.92S235.53,258.66,234.59,255.64Z"/><path class="cls-2" d="M251.48,261c-1.24-2.91,7.81-39.85,7.81-39.85s5.71-1.62,6.87.29-.85,37.65-2.68,39.81-1.05,1.57-5,1.89c-1.08-.91,2.46-18.06,1.39-19s-1.09-1.12-2,0-1.37,17.87-2.37,17.95S252.72,263.89,251.48,261Z"/><path class="cls-2" d="M195.38,166.83c0-2,0-2,2-2s3,1.06,3,2.06-1.06,3-2.06,3A3.19,3.19,0,0,1,195.38,166.83Z"/><path class="cls-2" d="M201.2,176c0-2,6.08-3.88,7.06-2.86s-2.15,7-4.15,6.92S201.16,178,201.2,176Z"/><path class="cls-2" d="M207.05,183.07c1-2,7.08-3.86,9.06-2.82s-3.16,7.94-5.16,7.9S206,185.05,207.05,183.07Z"/><path class="cls-2" d="M213.91,190.21c1-2,8.12-5.84,9.08-3.82s-4.18,8.92-5.18,8.9S212.87,192.19,213.91,190.21Z"/><path class="cls-2" d="M220.79,196.35c1-2,8.14-6.84,9.08-3.82s-1.17,8-3.19,8.94S219.75,198.33,220.79,196.35Z"/><path class="cls-2" d="M228.64,203.51c0-2,6.22-10.88,8.2-9.84s-.24,12-2.26,13S228.6,205.51,228.64,203.51Z"/><path class="cls-2" d="M237.56,207.69c.06-3,5.22-10.9,8.22-10.84s1.72,14,.7,15S237.5,210.69,237.56,207.69Z"/><path class="cls-2" d="M248.48,211.91c.06-3,6.24-11.87,9.2-9.81s.77,11-.25,12S248.42,214.91,248.48,211.91Z"/><path class="cls-2" d="M259.37,217.13c-1-2,1.19-9,4.23-10.91s3.77,11.08,2.75,12.06S260.33,219.15,259.37,217.13Z"/><path class="cls-2" d="M65.8,194.2c8.92,4.19,16.87,6.35,26.87,6.55,3.86,7.08,23.79,10.49,38.81,9.79-6.65,4.44-31.11,5.37-40.09,4.19S57.8,194,65.8,194.2Z"/><path class="cls-2" d="M97.71,198.85s53.15-6.92,57.13-5.84,1.86,7,6.74,13.14c-1.09,4-38,.23-50,1C98.6,205.58,97.64,198.84,97.71,198.85Z"/><path class="cls-2" d="M115.36,216.21s43.18-8.12,48.15-7,7.86,7.16,7.82,9.16-10,1.8-28.1,4.43C129.05,226.26,115.43,216.2,115.36,216.21Z"/><path class="cls-2" d="M92.31,218.75c1-1,12,.24,21,.42,5.22,6.34,29.84,4.44,35.89,5.73-3.1,4.94-8.12,5.84-26.15,7.47S91.29,219.73,92.31,218.75Z"/><path class="cls-2" d="M134,233.6s36.26-12.27,39.26-12.21,4,2.08,8.86,7.18C141.77,245.76,134,233.6,134,233.6Z"/><path class="cls-2" d="M116,235.23c16,1.32,16.91,4.34,26.91,4.55,2.94,3.06,5.92,4.12,6.88,6.14-3.51,2.13-8.06,2.83-14.06,2.71S116,236.23,116,235.23Z"/><path class="cls-2" d="M150.85,241.94c3-1.94,28.21-10.43,30.21-10.39s2,1,5.92,4.12C167.6,254.28,147.81,243.88,150.85,241.94Z"/><path class="cls-2" d="M142.69,249.77c10,1.21,25-1.49,30.05-2.39s-6.14,6.88-14.16,7.72S142.63,252.77,142.69,249.77Z"/><path class="cls-2" d="M171.6,254.36c-2-1,15.3-14.69,18.3-14.63s4,2.08,6.9,5.14C192.62,253.79,173.58,255.4,171.6,254.36Z"/><path class="cls-2" d="M184.56,256.63c15.05-2.7,13.18-8.74,16.2-9.68s6,1.12,6.91,4.14C197.45,261.89,179.52,258.52,184.56,256.63Z"/><path class="cls-2" d="M184.48,260.62c6,1.13,13-.73,16-.67s-5.1,4.9-9.1,4.82S178.5,259.5,184.48,260.62Z"/><path class="cls-2" d="M166.54,257.26c1-1,14-.72,15,.3s-3.08,3.94-8.08,3.84S165.52,258.24,166.54,257.26Z"/><path class="cls-2" d="M203.47,261c-1-1,6.16-7.88,7.18-8.86s4,.08,6.94,3.14C215.43,263.25,204.45,262,203.47,261Z"/><path class="cls-2" d="M202.41,264c1-1,10-.8,10,.2s-2.06,3-5.06,2.9S201.39,265,202.41,264Z"/><path class="cls-2" d="M214.33,268.23c-2-1,6.22-10.87,7.24-11.85s6.94,3.14,6.9,5.14S216.31,269.27,214.33,268.23Z"/><path class="cls-2" d="M218.29,270.31c1-2,4.06-2.92,5-1.9s-.09,4-1.09,4S217.25,272.29,218.29,270.31Z"/><path class="cls-2" d="M226.26,271.47c-1-1,6.17-7.87,8.19-8.83s6,2.12,4.91,4.1S227.24,272.49,226.26,271.47Z"/><path class="cls-2" d="M237.2,274.7c-3-2.06,7.18-8.86,8.22-10.84s6,2.12,5.92,4.12S240.16,276.76,237.2,274.7Z"/><path class="cls-2" d="M244.16,276.84c4-1.92,11.18-8.78,12.18-8.76s1-1,3.94,3.08C253.1,280,240.12,278.76,244.16,276.84Z"/></g><g id="Шар_6" data-name="Шар 6"><path class="cls-4" d="M527.87,144.89s4.54,6,9.31,6.46,10-3.9,10.32-4.68.25-2.65-.28-2.7-1.26,2-2.34,2.2-4.71-1.23-6.83-1.43-4.34.68-5.67.56-2.67-2.92-3.47-3S527.87,144.89,527.87,144.89Z"/><path class="cls-5" d="M536.94,148.12c.94-1.52,3.33-21.26,1.86-20.43-3.21,0-12-6.17-12.08-8.32,3.74-.48,11.89,1.62,12.73,1.16s1.38-15.12,1.38-15.12,1.28-8.18-2.17-8.49-11.1,7.28-13.68,12.13-4.05,15.14-4.05,15.14S536,149.64,536.94,148.12Z"/><path class="cls-5" d="M538.91,148.5c-.69-1.64,0-21.51,1.36-20.46,3.17.47,12.82-4.23,13.23-6.33-3.62-1.06-12-.27-12.76-.85s1-15.15,1-15.15,0-8.28,3.47-8,9.82,8.93,11.61,14.12,1.63,15.59,1.63,15.59S539.6,150.15,538.91,148.5Z"/><path class="cls-1" d="M538.39,96.89c.15-1.59,1.91-6.24,3.23-6.12s3,6,2.88,7-2.28,13.75-3.36,13.48S538.25,98.49,538.39,96.89Z"/><path class="cls-6" d="M540.91,91.1c-.44.63-1.27,24.36-1.27,24.36l-2.7,32.66s.15,1.35.68,1.4,1.15-1,1.15-1l3-32.89s.9-23.38.65-24.24A.81.81,0,0,0,540.91,91.1Z"/><path class="cls-5" d="M524.64,148.07c.92-1.25.51-8.51.77-11.43a34,34,0,0,0,.51-5.57c-2.22-5-2-10.08.53-11.72-2.34-3.69-.53-14.14-.41-19-6-4-8.73-6.95-11.4-15.75-1.43.94-.13,19,.43,21.7,1.13,8.13,1.95,10.88,4.27,11.89.26,3-.73,5.71-.66,9S520.08,145.25,524.64,148.07Z"/><path class="cls-5" d="M550.11,150.39c-.77-1.35,1.44-7.64,1.5-10.57a27.86,27.86,0,0,1,.35-5.93c2.75-4.74,3.12-9.8.75-11.71,2.74-3.41,2.68-14.82,3.09-19.69,6.46-3.34,8.85-5.12,12.48-13.58,1.31,1.09-2,18.88-2.81,21.53-2,8-3.14,10.6-5.55,11.35-.59,2.92.09,5.75-.34,9S555,148.08,550.11,150.39Z"/></g></svg>