<svg xmlns="http://www.w3.org/2000/svg" viewBox="0 0 600 600"><defs><style>.cls-1{fill:#3f3f3f;}.cls-2,.cls-3{fill:#fac042;}.cls-3{font-size:140px;font-family:MyriadPro-Regular, Myriad Pro;letter-spacing:0.19em;}.cls-4,.cls-5{fill:#6b6b6b;}.cls-5,.cls-6{stroke:#000;stroke-miterlimit:10;stroke-width:0.5px;}.cls-6{fill:#848484;}</style></defs><title>background-8</title><g id="Шар_7" data-name="Шар 7"><path class="cls-1" d="M514.22,149.89c.9-2.52,7.16-19.88,7.13-20.92,0-.23,4.79-8.39,8.14-8.21,8.11.43,20.23,2.77,27.15,4.06,2.31.43,3.9,8.1,3.9,8.47a169.62,169.62,0,0,0,1.34,21.86c-5.45.87-13.94-1.58-22.77-2.51S521.07,152.26,514.22,149.89Z"/></g><g id="фасція"><polyline class="cls-2" points="297.18 271.81 305.58 272.14 306.91 340.24 299.4 352.96 294.88 340.77 297.18 271.81"/><text class="cls-3" transform="translate(103.41 551.4)">SPQR</text><path class="cls-2" d="M357.42,328.22c3.52.8,7,2.21,6,.24-2.21-4.19-23.7-59-23.7-59a7.22,7.22,0,0,0-3.16,3.88C335.06,277.45,353.07,327.23,357.42,328.22Z"/><path class="cls-2" d="M333.37,278.24c1-1,5.07-.76,4,.15-2.37,2,15.84,55,19,55.42,1.37.17-5.66.47-8.11-.95S331.91,279.81,333.37,278.24Z"/><path class="cls-2" d="M246.47,324.86c-1.08,1.95,2.76,2.8,4.92,2.19S268.48,280,267.3,278.64c-.94-1.06-4-.16-4-.16C265.05,279.18,247.22,323.49,246.47,324.86Z"/><path class="cls-2" d="M236.51,323.46c-1,.12,3.13,2.24,4.88,3.2,2.42,1.32,25.49-49.69,24.11-53.1-.84-2.07-4.92-2.6-5-1.19C260.5,274.29,237.47,323.35,236.51,323.46Z"/><path class="cls-2" d="M337.69,346.46l8,.31s-5.05-24.21-8.05-24.33C334.52,325.32,337.69,346.46,337.69,346.46Z"/><path class="cls-2" d="M250.72,344c0-1,8-24.71,11-24.59s-2,24.94-3,24.9S250.68,345,250.72,344Z"/><path class="cls-2" d="M302.68,346.08c0-1,1.47-11.95,5.5-12.79s22-.14,25,1,4.88,3.2,4.84,4.19,1.65,9.08.65,9-3,.88-4-.16-.68-8-2.64-9.11-18.95-1.75-22-.87-4.35,8.84-4.35,8.84S302.64,347.08,302.68,346.08Z"/><path class="cls-2" d="M259.79,342.39c0-1,1.47-11.95,5.51-12.79s22-.13,25,1,4.87,3.2,4.84,4.2,1.64,9.07.64,9-3,.88-4-.16-.68-8-2.64-9.11-18.95-1.75-22-.86-4.35,8.83-4.35,8.83S259.75,343.39,259.79,342.39Z"/><path class="cls-2" d="M371.05,388.8c2,1.08,12.11,2.48,14.09.56s.45-14,1.49-15,8.48,13.35,10.44,14.43,6.82.63,8-1-15.09-21.29-16-23.33.51-13-.45-14-13-.51-14,.45,4.61,10.19,4.49,13.19S369.09,387.72,371.05,388.8Z"/><path class="cls-2" d="M352.8,344.05c-.79-1.17,3-.88,5,.2s-1.65,42-3.69,42.89-9.32.16-8-.32C347.26,386.4,353.85,345.63,352.8,344.05Z"/><path class="cls-2" d="M278.28,381.15c15.18-10.69,25.32-23.23,34.43-35.67,0,0,7-.73,7,1.27s-26.35,34-30.39,34.83S278.28,381.15,278.28,381.15Z"/><path class="cls-2" d="M250.83,341c-1.92-2.08-3.37-2.29-7.81-.6-6,2.29-6.35,39.29-2.79,41.22,2.49,1.34,7.92,2.31,9,.35C245.34,378.85,245.72,343.84,250.83,341Z"/><path class="cls-2" d="M218.21,381.79c-5.55-1.37-2.49-40.86,1.65-42,.67,0-5-1.19-7-.27-7.27,6.72-10.21,30.62-3.65,41.89C216.13,383.71,218.21,381.79,218.21,381.79Z"/><path class="cls-2" d="M168.13,382.82c-7,.73,7.31-7.72,11.38-9.56s269.83,9.62,269.83,9.62l-.27,7s-262.72-12.34-267.76-11.53S175.16,382.1,168.13,382.82Z"/><path class="cls-2" d="M179,361.23c-6-.23-14.47,11.44-10.47,11.6,7.15-3.72,6.27-6.76,10.27-6.6s263.72,12.37,263.79,10.38-13.75-6.55-13.75-6.55S185,361.47,179,361.23Z"/><polygon class="cls-2" points="175.42 350.08 440.25 359.5 440.02 365.5 173.26 354 175.42 350.08"/><path class="cls-2" d="M172.09,332.94c2,.08,4.84,4.19,7.8,5.31S425.66,348.92,427.7,348s5.23-5.8,7.15-3.72-2.35,8.91-5.39,9.79-245.81-9.67-249.77-10.82-7.79-5.31-8.75-6.35S170.09,332.86,172.09,332.94Z"/></g><g id="вінок"><path class="cls-2" d="M411.82,345.37c2,.08,8.07-1.68,9.11-2.64s-1.68-8.07-1.41-15.07C414.57,326.47,411.14,337.34,411.82,345.37Z"/><polygon class="cls-2" points="301.06 313.22 365.84 337.34 366.34 324.31 409.92 338.65 401.96 350.16 435.04 362.1 434.15 349.32 484.12 363.2 478.12 373.64 516.46 386.78 516.07 376.78 554.72 387.7 550.73 377.65 580.09 396.73 544.54 398.9 555.48 391.88 519.87 381.84 521.08 392.4 471.99 375.48 478.24 366.43 440.16 354.69 439.66 367.72 396.08 353.39 405.18 340.23 370.96 329.94 370.46 342.97 298.47 318.73 301.06 313.22"/><polygon class="cls-2" points="299.97 313.95 367.59 299.6 361.02 288.33 405.5 277.07 404.95 291.06 439.28 283.4 431.68 273.1 481.31 258.04 481.83 270.07 521.24 260.61 515.56 252.38 554.04 240.88 545.28 234.53 580.29 234.91 551.45 255.79 556.92 244 521.47 254.61 528.15 262.88 477.64 274.9 478.07 263.91 439.63 274.41 446.19 285.68 401.72 296.94 402.35 280.95 367.94 290.61 374.5 301.87 300.73 319.99 299.97 313.95"/><path class="cls-2" d="M369.36,76.49c.08-2-11.49-12.3-15.56-11.62C347.16,66,334.05,58.09,332,60s7.56,11.31,13.44,14.54C351.33,76.79,369.28,78.49,369.36,76.49Z"/><path class="cls-2" d="M388.75,92.27c1-1-6.72-7.27-12.63-9.5s-23.91-3-29-1.14c-3.12,2.88,11.6,10.46,19.51,12.77S387.71,93.23,388.75,92.27Z"/><path class="cls-2" d="M412.26,105.2c.08-2-6.68-8.27-15.71-7.62s-27.14,2.94-27.25,5.93,10.71,7.43,24.62,10C408,113,412.18,107.2,412.26,105.2Z"/><path class="cls-2" d="M434.46,126.09c0,1-11.27,6.56-21.22,5.17s-25.75-7-22.63-9.9,13.07-1.48,24.26-6C426.9,114.79,434.5,125.09,434.46,126.09Z"/><path class="cls-2" d="M445.86,141.55c-2,.92-17.07,1.33-22,.14s-11.8-5.47-9.76-6.39,11,.43,11,.43,9.19-4.64,13.15-3.49S447.9,140.63,445.86,141.55Z"/><path class="cls-2" d="M480.17,287c.35-9-6.37-16.26-9.25-19.38-3-1.11-13.11,2.49-17.18,4.33-2.36,5.19,19.94,19.7,19.32,17.78C473.06,289.74,476.93,292.89,480.17,287Z"/><path class="cls-2" d="M470.23,310.64c2.12-2.92-.49-13-2.37-16.1s-16.32-17.66-18.28-18.74-4-.15-4.07,1.84,4.76,6.2,4.72,7.19-3,.89-4.15,3.84c-1.32,8,12.16,21.5,14.12,22.58S468.12,313.56,470.23,310.64Z"/><path class="cls-2" d="M458.38,332.19c3.31-7.87,1.62-15.95-1.26-19.06s-13.2-20.54-19.16-21.77.14,22,1,25.06S455.06,340.07,458.38,332.19Z"/><path class="cls-2" d="M444.8,346.67c-7.8-5.31-12.84-4.51-17.56-11.7-2.84-4.11-3.93-27.18-.9-28.06a59.4,59.4,0,0,0,15.28,18.62S451.11,338.91,444.8,346.67Z"/><path class="cls-2" d="M324.61,400c-.92-2,5.46-11.8,7.5-12.72s7,.28,12,.47c2.84,4.12,13.95,1.55,13.95,1.55s-10.34,8.6-15.38,9.4S325.53,402,324.61,400Z"/><path class="cls-2" d="M472,366.75s-1.2,5-4.31,7.84c-11.07,1.57-22-1.86-25.79-6-1.92-2.07.36-9,1.43-10.95C445.4,356.7,472,366.75,472,366.75Z"/><path class="cls-2" d="M349.12,56.68c3.23-5.87-7.36-16.3-9.28-18.38s-13.6-10.54-16.64-9.66c-.95,6.61,6.6,10.27,8.37,16.35S345.89,62.56,349.12,56.68Z"/><path class="cls-2" d="M372.87,63.62c2.53-11.77-17.77-31.72-29.76-32.19-5.15,3.8,8.44,14.34,10.16,21.41C351.24,50,371,72.35,372.87,63.62Z"/><path class="cls-2" d="M393.34,77.44c2-.92-2.41-15.11-4.21-20.18S372.77,40.6,370.77,40.52s3.49,13.15,5.21,20.22S391.3,78.36,393.34,77.44Z"/><path class="cls-2" d="M416.65,95.37c2,.08.51-13-.25-19s-18-24.72-21.08-23.84,1.21,20.06,4,26.17C403.1,83.83,407,86,416.65,95.37Z"/><path class="cls-2" d="M437.81,117.22c2.23-5.92,1.78-20,1-25s-16-24.65-18.08-23.73.14,22,.9,28.05C427.53,98.8,429.93,113.9,437.81,117.22Z"/><path class="cls-2" d="M455.05,136.91c3,.12,5.74-18.79,4.06-26.86S448,87.59,446,87.52s-5.43,10.79-4,24.86,8.25,19.34,8.25,19.34S452.05,136.79,455.05,136.91Z"/><path class="cls-2" d="M458.85,142.06c.67-.84,16.83,2.53,16.58-14.36-.28-18.13-10.69-25.59-11-25.45C464.27,118.78,462.51,125.82,458.85,142.06Z"/><path class="cls-2" d="M472.84,142.61c2,1.08,9,.36,11,.44s4.31-7.84,4.39-9.84-3.6-10.15-4.45-14.18c-3.91-2.16-4.39,9.83-5.54,13.79S470.88,141.54,472.84,142.61Z"/><path class="cls-2" d="M494.14,262.54c1.92,2.08,14.11-2.44,19.26-6.24.28-7-.61-10,7.43-10.72s9.74-18.63,7.74-18.71c-9.31,7.64-21.46,11.16-24.57,14S493.38,256.51,494.14,262.54Z"/><path class="cls-2" d="M491.38,289.62c13.23,5.37,31.55-14.93,33.89-23.36-9.95,5.24-18.81,3.33-23.33,7.2C498.62,276.3,485,287,491.38,289.62Z"/><path class="cls-2" d="M483.14,313.15c15.36,7.35,38.64-15.49,42-25.37-12.22,5.53-22.63,2.61-28.29,6.9C492.72,297.82,475.78,309.62,483.14,313.15Z"/><path class="cls-2" d="M475.5,332.36c19.05,7.81,44.74-9.31,44-19.31-12.56,4.51-20,1.36-28.8,3.41C482,319.5,471.82,326.75,475.5,332.36Z"/><path class="cls-2" d="M461.66,350.33c17.6,10.7,45.65-2.19,46.52-12.18-13.11,2.49-19.95-1.78-29-1.14C470.13,338.66,458.9,344.22,461.66,350.33Z"/><path class="cls-2" d="M444.65,375.69c-8.77-.11-9-1.55-16.18,4.36,7.21,20.3,42,9.69,43.89,3.73C461.45,383.9,453.43,375.79,444.65,375.69Z"/><path class="cls-2" d="M423.54,389.51c-9.76-1.39-12.78-1.35-21.62,4.19,5.94,18,48.13,18.27,49.17,7.67C438.93,399.92,433.3,390.9,423.54,389.51Z"/><path class="cls-2" d="M401.21,401.25c-9.5-2.63-12.49-3-22,1.39,3.58,18.65,45.39,24.3,47.79,13.92C415.14,413.56,410.71,403.89,401.21,401.25Z"/><path class="cls-2" d="M354.35,407.16c10-2.92,18.95.84,21.94,1.86,13.94,7.12,4.33,11.78,23.28,18.93C386,438.18,353.49,422.71,354.35,407.16Z"/><path class="cls-2" d="M325.29,408c10.11-2.61,15-.41,18,.71,13.71,7.54,7.52,12.3,26.23,20C355.66,438.57,324,423.54,325.29,408Z"/><path class="cls-2" d="M279.91,442.26c15-24.43,11.74-18.55,43.42-35.32,21.57-2.15,39.11-2.08,56.35-7.79,120-47.92,140.16-159.52,81.85-249-23.72-36.4-63.06-70.36-110.45-92.42C346.61,63.54,347,60.6,347,60.6c85.23,36.08,130.89,107.23,139.09,178.61,4.62,80.85-51.37,156.85-165.52,162.62-13.95-1.55-53.19,25.06-50.34,33Z"/><path class="cls-2" d="M185.92,337.49c-2-.08-7.91-2.32-8.87-3.36s2.31-7.91,2.59-14.9C184.67,318.42,187.24,329.53,185.92,337.49Z"/><polygon class="cls-2" points="298.87 314.14 232.4 333.1 232.92 320.07 188.35 330.93 195.38 343.04 161.46 352.33 163.35 339.67 112.44 349.58 117.61 360.46 78.36 370.54 79.53 360.61 40.14 368.46 44.91 358.75 14.14 375.47 49.41 380.43 39.05 372.56 75.35 365.36 73.31 375.79 123.58 362.78 118.05 353.26 156.94 344.55 156.41 357.58 200.99 346.72 192.95 332.88 227.87 325.31 227.35 338.34 301.02 319.83 298.87 314.14"/><polygon class="cls-2" points="299.9 314.95 233.62 295.33 241.04 284.61 197.59 269.89 197.04 283.88 163.42 273.55 171.81 263.87 123.51 244.96 122.04 256.91 83.5 244.39 89.81 236.63 52.35 222.15 61.58 216.5 26.65 214.13 53.76 237.21 49.24 225.03 83.74 238.39 76.43 246.11 125.84 262.07 126.28 251.07 163.77 264.56 156.35 275.28 199.8 290 200.43 274.01 233.97 286.33 226.54 297.05 298.66 320.9 299.9 314.95"/><path class="cls-2" d="M249.38,72.78c.08-2,12.42-11.37,16.42-10.37,6.54,1.64,20.22-5.21,22.14-3.13S279.51,70,273.4,72.72C267.33,74.48,249.3,74.77,249.38,72.78Z"/><path class="cls-2" d="M228.8,87c-1-1,7.27-6.72,13.35-8.48s24.06-1.06,29,1.14c2.88,3.11-12.39,9.52-20.46,11.2S229.76,88,228.8,87Z"/><path class="cls-2" d="M204.35,98c.08-2,7.31-7.72,16.26-6.37s26.83,5.06,26.71,8.06-11.27,6.56-25.34,8C208,106.18,204.27,100,204.35,98Z"/><path class="cls-2" d="M180.58,117.11c0,1,10.72,7.42,20.75,6.82s26.22-5,23.34-8.09-12.91-2.51-23.71-7.94C189,106.43,180.62,116.11,180.58,117.11Z"/><path class="cls-2" d="M168,131.62c2,1.08,16.91,2.67,21.95,1.87s12.18-4.53,10.22-5.61-11-.43-11-.43-8.79-5.35-12.83-4.51S166,130.54,168,131.62Z"/><path class="cls-2" d="M122.37,273.94c.36-9,7.63-15.71,10.74-18.59,3-.88,12.87,3.51,16.79,5.66,1.95,5.36-21.43,18.07-20.65,16.2C129.25,277.21,125.13,280.05,122.37,273.94Z"/><path class="cls-2" d="M130.42,298.27c-1.88-3.07,1.51-12.95,3.63-15.87s17.65-16.31,19.69-17.23,4,.15,3.92,2.15-5.23,5.8-5.27,6.8,3,1.12,3.84,4.15c.68,8-13.82,20.48-15.85,21.4S132.3,301.35,130.42,298.27Z"/><path class="cls-2" d="M140.55,320.69c-2.68-8.11-.37-16,2.74-18.91s14.78-19.43,20.81-20.19-1.86,21.94-3,24.9S143.23,328.8,140.55,320.69Z"/><path class="cls-2" d="M153,336.19c8.19-4.68,13.15-3.49,18.42-10.28,3.15-3.88,6.06-26.79,3.1-27.9a59.3,59.3,0,0,1-16.7,17.35S147.27,328,153,336.19Z"/><path class="cls-2" d="M268.58,398.78c1.08-2-4.53-12.18-6.48-13.26s-7-.28-12-.47c-3.15,3.87-14,.44-14,.44s9.63,9.39,14.59,10.59S267.5,400.74,268.58,398.78Z"/><path class="cls-2" d="M124.22,354.07s.81,5,3.69,8.15c10.91,2.44,22-.13,26.17-4,2.08-1.92.36-9-.56-11C151.56,346.14,124.22,354.07,124.22,354.07Z"/><path class="cls-2" d="M271.11,54.62c-2.76-6.12,8.62-15.68,10.7-17.6s14.38-9.44,17.34-8.32c.43,6.66-7.39,9.72-9.62,15.63S273.87,60.73,271.11,54.62Z"/><path class="cls-2" d="M246.89,59.67c-1.6-11.94,20.21-30.23,32.2-29.76,4.84,4.19-9.55,13.64-11.82,20.55C269.52,47.81,248.08,68.51,246.89,59.67Z"/><path class="cls-2" d="M225.4,71.83C223.44,70.75,229,57,231.18,52S248.8,36.73,250.79,36.8s-4.5,12.84-6.78,19.75S227.36,72.91,225.4,71.83Z"/><path class="cls-2" d="M200.75,87.88c-2-.08.51-13,1.74-18.95s19.93-23.23,22.89-22.12-2.78,19.91-6,25.79C215.17,77.43,211.09,79.28,200.75,87.88Z"/><path class="cls-2" d="M177.94,108c-1.76-6.08-.21-20,1-25s17.93-23.31,19.89-22.23-1.86,21.94-3.1,27.9C189.64,90.44,186.05,105.31,177.94,108Z"/><path class="cls-2" d="M159.21,126.27c-3-.12-4.25-19.18-1.94-27.09s12.86-21.52,14.85-21.44,4.57,11.19,2,25.1-9.74,18.63-9.74,18.63S162.2,126.39,159.21,126.27Z"/><path class="cls-2" d="M155,131.11c-.6-.89-17,1.2-15.4-15.62,1.7-18,12.66-24.67,13-24.5C151.44,107.48,152.63,114.63,155,131.11Z"/><path class="cls-2" d="M141,130.56c-2,.92-9-.35-11-.43s-3.68-8.15-3.6-10.15,4.39-9.84,5.54-13.79c4.08-1.84,3.61,10.15,4.45,14.18S143.06,129.64,141,130.56Z"/><path class="cls-2" d="M110.37,248.45c-2.08,1.92-13.88-3.55-18.71-7.74.27-7,1.39-10-6.57-11.27s-8.24-19.34-6.24-19.26c8.67,8.35,20.51,12.82,23.39,15.93S111.6,242.49,110.37,248.45Z"/><path class="cls-2" d="M111,275.65C97.38,280,80.71,258.3,79,249.7c9.51,6,18.49,4.8,22.69,9C104.82,261.81,117.52,273.58,111,275.65Z"/><path class="cls-2" d="M117.35,299.76c-15.89,6.13-37.3-18.48-39.9-28.59,11.75,6.47,22.35,4.38,27.66,9.1C109,283.73,125,296.82,117.35,299.76Z"/><path class="cls-2" d="M123.46,319.51c-19.6,6.3-43.86-12.8-42.38-22.71,12.17,5.48,19.81,2.92,28.44,5.66C118,306.18,127.58,314.21,123.46,319.51Z"/><path class="cls-2" d="M135.84,338.52c-18.37,9.28-45.32-5.77-45.41-15.8,12.87,3.51,20-.21,29,1.14C128.32,326.21,139.08,332.64,135.84,338.52Z"/><path class="cls-2" d="M150.81,365.13c8.76.58,9.1-.84,15.79,5.62-8.78,19.67-42.67,6.36-44,.27C133.42,372,142.05,364.54,150.81,365.13Z"/><path class="cls-2" d="M170.78,380.56c9.84-.61,12.84-.34,21.22,5.88-7.34,17.52-49.42,14.44-49.62,3.79C154.61,389.73,160.94,381.18,170.78,380.56Z"/><path class="cls-2" d="M192.11,394c9.68-1.88,12.69-2,21.8,3.1-5,18.32-47.16,20.66-48.73,10.13C177.26,405.2,182.43,395.91,192.11,394Z"/><path class="cls-2" d="M238.37,403.6c-9.77-3.7-19-.65-22,.13-14.46,6-5.24,11.4-24.69,17C204.34,432,238,419.17,238.37,403.6Z"/><path class="cls-2" d="M267.27,406.74c-9.88-3.39-14.95-1.59-18-.71-14.27,6.44-8.47,11.68-27.73,17.92C234.59,434.81,267.38,422.31,267.27,406.74Z"/><path class="cls-2" d="M309.82,444.44c-13-25.53-10.25-19.42-40.52-38.62-21.33-3.85-38.82-5.15-55.56-12.2-115.84-57.19-127.2-170-62-254.63,26.51-34.42,68.39-65.18,117.37-83.45,4,6.11,3.88,3.15,3.88,3.15C185.16,88,134.05,155.31,120.26,225.82c-11,80.24,38.89,160.4,152.24,175.12,14-.45,51.06,29.16,47.58,36.9Z"/></g><g id="тіло"><path class="cls-2" d="M328,339.07c6.63-5.81,9.9-22.63,9.17-29.66a10.54,10.54,0,0,0-6-.24C334.67,321.32,326.17,336.33,328,339.07Z"/><path class="cls-2" d="M323,338.87c-2-.07-1.9-28.09-.86-29.05s5-.8,6,.23S325,339,323,338.87Z"/><path class="cls-2" d="M318,311.66c-.92-2-.88-3-5.92-2.23-5.19,4.79-4.82,20.82,4.9,28.21C315.53,324.57,309.62,322.34,318,311.66Z"/><path class="cls-2" d="M283,337.3c5.63-20.65,4.09-27.86,5.13-28.82s4-.84,5,.2C294,312.71,288.92,339.54,283,337.3Z"/><path class="cls-2" d="M278.05,336.11c-1,0-1.94-27.1.14-29s5.08-1.8,6,.24S279.05,336.15,278.05,336.11Z"/><path class="cls-2" d="M268,336.71c-5-1.19-2.78-31.13-1.74-32.09s5,1.2,5.92,2.23S266.77,317.65,268,336.71Z"/><path class="cls-2" d="M310.62,288.85c-2.81,13-6.73,18.1-5.72,19.09a76.3,76.3,0,0,1,8.45-1.11c-1.19-.93-2.49-2-2.49-2s.94-4,1.95-3c.85.83.32,3.08,1.33,4.95,3.29-.24,6.62-.33,9.82-.36-1.45-1.75-3.14-4.18-3.15-4.71,0-1,5-2.07,5-.07,0,1.69-.67,2.69-.24,4.78,4.7,0,9,.09,12.31,0-6.1-6.91-9.19-12.86-9.23-15.86s3.9-7.06,4.85-10.08.77-16-.31-21S328,244.59,326,244.62c-2.84,11-17.8,13.26-21.76,16.32s.22,15,.22,15S310.52,281.85,310.62,288.85Zm10.07,4.85,3,2-3,0Zm-3.07-4.95c0-1,0-3,.94-4s4,.94,4.05,2.94.05,4-.95,4S317.64,289.75,317.62,288.75Zm-1.22-15c4,.95,5.94-4.08,6.93-5.1s-.15-10,.85-10,4.1,6.94,5.13,8.92,2.15,10,.16,11-3,2.05-4,.06c3-1,2.9-7,1.87-9s-4,.06-4,1.06.08,6-.9,7-1,2-2,2S315.44,276.78,316.4,273.76Zm-1-3c-1,1-2,0-3,0s-1.14-9,.86-9S316.34,269.76,315.36,270.78Zm.33,23,.05,3a10,10,0,0,1-3,1C311.75,297.84,315.67,291.78,315.69,293.78Zm-5.2-13.93c-1-1-2.06-4-1.07-5s2,0,3,.95a14.46,14.46,0,0,1,2.06,4S311.5,280.84,310.49,279.85Z"/><path class="cls-2" d="M296.51,273.78s4.47-11.83.59-15-18.79-5.75-21.35-16.86c-2-.08-6.39,9.76-7.58,14.72s-1.71,17.94-.83,21,4.72,7.19,4.6,10.19-3.35,8.87-9.62,15.63c3.29.13,7.62.13,12.32.26.47-2.07-.2-3.09-.13-4.78.08-2,5-.8,5,.2,0,.52-1.76,2.91-3.26,4.63,3.2.1,6.53.28,9.81.59,1.05-1.84.58-4.1,1.45-4.91,1-1,1.88,3.08,1.88,3.08l-2.54,1.92a75.23,75.23,0,0,1,8.42,1.31c1-1-2.77-6.11-5.25-19.22C290.28,279.54,296.51,273.78,296.51,273.78Zm-16.77,19.36-3-.12,3.08-1.88Zm-.84-4c-1,0-.92-2-.84-4s3.15-3.88,4.11-2.84.88,3,.84,4S279.9,289.14,278.9,289.1Zm1.47-12c-1,0-1-1-1.92-2.07s-.76-6-.73-7-2.87-3.11-4-1.16-1.32,8,1.64,9.08c-1.08,2-2,.92-4-.16s-.65-9,.43-11,4.35-8.84,5.35-8.8-.36,9,.6,10,2.77,6.12,6.8,5.27C285.48,274.35,281.37,277.19,280.37,277.15Zm7.7-17.71c2,.08,1.65,9.07.65,9s-2,.92-3-.11S286.07,259.36,288.07,259.44Zm-.41,36a10.15,10.15,0,0,1-3-1.11l.11-3C284.89,289.34,288.65,295.49,287.66,295.45Zm-1.3-18.06s1.12-3,2.16-3.92,2.08-1.92,3-.88-.16,4-1.2,5S286.36,277.39,286.36,277.39Z"/><path class="cls-2" d="M333.55,248.22c2-.93,2.86-21.9,2-24.94-6.11,2.76-3.27,6.88-8.55,13.67C325.45,237.7,331.07,249.36,333.55,248.22Z"/><path class="cls-2" d="M306.29,254.15c.2-5,6.78-19.75,6.78-19.75s5.8,5.24,13.11-2.48C327.91,239,318.21,256.62,306.29,254.15Z"/><path class="cls-2" d="M301.14,258c-5-.59-6.33-17.26-5.13-22.22,4,1.16,8.91,2.36,13,.52C307.7,238.46,305.48,258.47,301.14,258Z"/><path class="cls-2" d="M277.26,229c-3-1.11,2.64,9.11,2.64,9.11-3.15,3.88,2.53,12.11,16.4,15.66-2.68-8.11-.09-23-4.13-22.18C288.05,234.42,284.06,234.26,277.26,229Z"/><path class="cls-2" d="M269.54,221.68c-2-.08-1.78,19.95-.94,24,3,1.11,7.23-5.73,8.31-7.68s-2.73-7.12-2.73-7.12S271.54,221.76,269.54,221.68Z"/><path class="cls-2" d="M324.34,227.84c-.92-2,1.87-21.94,1.9-22.94s5.08-1.8,10.08-1.61C339.23,205.41,331.3,229.12,324.34,227.84Z"/><path class="cls-2" d="M316.11,233.52c-6.84-4.27-1.93-27.09-1.93-27.09s9-.65,10,.39S323,237.8,316.11,233.52Z"/><path class="cls-2" d="M301.08,233.93c-6.87-3.27-3.89-28.17-3.89-28.17l14,.55S308,237.21,301.08,233.93Z"/><path class="cls-2" d="M287.17,231.38c-6.11,2.77-8.13-22.33-6.05-24.25,2-.92,11.07-1.57,13-.49C295.07,208.68,293.29,228.62,287.17,231.38Z"/><path class="cls-2" d="M275.46,223.92c2-.92,4.78-19.83,3.86-21.87a34,34,0,0,0-7.88-3.31C266.33,201.54,266.58,220.57,275.46,223.92Z"/><path class="cls-2" d="M331.11,183.07c1.07-2,6.15-3.76,8.11-2.68.92,2,1.09,23.06-2.83,20.91S330,185,331.11,183.07Z"/><path class="cls-2" d="M314,184.4c1-1,13.07-1.48,14.07-1.44s-.91,23-5.82,20.78S313,185.36,314,184.4Z"/><path class="cls-2" d="M304.26,204c-5.95-1.23-8.21-20.33-7.17-21.29s13-.49,14,.55S310.22,205.27,304.26,204Z"/><path class="cls-2" d="M283.24,204.21c-3-.12-1.21-20.06-.18-21s10.08-1.61,12,.47S290.43,199.49,283.24,204.21Z"/><path class="cls-2" d="M267.49,197.58c-2.49-13.1,2.82-20.9,4.86-21.82s7.95,1.31,8.87,3.35C281.11,187,272.45,196.79,267.49,197.58Z"/><path class="cls-2" d="M321.8,139.67c4.2-4.83,7.31-7.71,3.75-18.86C322.75,115.69,318,110.5,304,110c-5.92-1.23-20.91,2.13-21.33,8.06,2.71,2.49,9.81,8.8,10.59,10.53.92,2,1.72,7.08.72,7s-.88-3-4.8-5.2c-8,.69-16,.37-18.06,1.29a7.68,7.68,0,0,0-3.95,3.78,11.89,11.89,0,0,1,2.83-.82c5.52-.93,15-1.47,18.91,2.75,1.74,1.89,1.19,5.12.65,9-2.44,10.91-5.71,17.79-16.13,28.39-.12,3,8.07-1.69,11.07-1.57,2,1.08,1.72,7.08,5.72,7.23s8.27-6.68,9.27-6.64,3.72,7.15,6.71,7.27,1.28-7,3.28-6.87c.88,3,11.67,8.46,13.71,7.54s-1.76-6.07.28-7c3.95,1.15,14.75,6.58,15.87,3.62S321.83,164.34,321.8,139.67Zm-23.39-15.93-3-.12a1,1,0,0,1,1-1s2-.92,2.08-1.91-1.92-2.08-2.92-2.12-3-.12-3.07,1.88l-.08,2s-4-1.16-3.88-3.16-1-1,2.07-1.92,13,.51,16,.63C308.6,119.14,300.45,122.82,298.41,123.74Z"/><path class="cls-2" d="M270.16,129.64c3-.88,18-.29,18.06-1.29a70.37,70.37,0,0,1-5.07-6.3,3.17,3.17,0,0,1-1.91,1c-1.36.24-2.58-.23-2.72-1s.85-1.67,2.21-1.9a3.79,3.79,0,0,1,1,0c-.54-.78-.85-1.27-.85-1.27-5,.95-18.83,3.07-17,17.64C263.89,136.4,267.12,130.52,270.16,129.64Z"/></g><g id="Крила"><path class="cls-2" d="M591.24,141.77c-4,.84-8.31,7.68-12.3,7.52s-158-4.21-169-4.65-11-.43-15.19,4.41-5.35,8.8-10.78,19.59S351.54,180.37,341.47,182c1.52,12.07,1.48,13.07-2,24.94,1,1,6-5.58,8.22-5.68,5.92,2.23,10,.39,10.15-3.6,0,0,8.84,4.35,13.15-3.49,2-.92,7.84,4.31,10.19-4.6,2-.92,7.88,3.31,6.23-5.76,3-.88,13,.51,9.27-6.64,2-.92,16.87,3.66,7.23-5.72,6.19-4.76,12-.53,15.15-3.41.07-2-6.72-7.27-6.72-7.27s138.85,6.46,141.85,6.58c20,.79,26.29-7,29.41-9.85C586.32,155.83,595.28,140.93,591.24,141.77Z"/><path class="cls-2" d="M575.67,168.68c-6-.24-8.07,1.68-41,.38-4.5,12.84-24.57,14.05-33.64,15.69C553.67,193.83,577.36,176.75,575.67,168.68Z"/><path class="cls-2" d="M529.55,170.86l-64.95-2.55-4.55,13.83,41,.61S530.19,179.9,529.55,170.86Z"/><path class="cls-2" d="M459.64,167.11s-34.93-2.37-39-1.53c-2.15,3.92,33.47,14.33,35.5,13.41s4.12-2.84,3.2-4.88c-5-.2-11.95-1.47-11.91-2.47s11,.43,12,.47S459.64,167.11,459.64,167.11Z"/><path class="cls-2" d="M561.9,188.15c-6-.24-4.08,1.84-33.14,2.7-8.7,17.67-42.44,10.34-51.51,12C534.62,220.1,554.43,199.86,561.9,188.15Z"/><path class="cls-2" d="M523.77,190.65c-7-.27-64.87-4.55-64.87-4.55l-5.51,12.79,44,1.73S524.41,199.68,523.77,190.65Z"/><path class="cls-2" d="M454,182.9c-1-1-34.46-14.36-39.58-11.56-5.23,5.8,31.11,23.24,34.11,23.36s6.11-2.76,4.19-4.84c-3-.12-11.87-3.47-11.83-4.47s11.91,2.47,12.91,2.51S455,183.94,454,182.9Z"/><path class="cls-2" d="M445.4,198.58c-1-1-31.15-22.24-36.27-19.44-5.23,5.8,24.84,30,27.84,30.12s7-.73,5.11-2.81c-3-.11-10.67-8.42-10.63-9.42s11.71,7.46,12.71,7.5S446.36,199.62,445.4,198.58Z"/><path class="cls-2" d="M435.85,212.21c-1-1-28-26.12-33.11-23.32-5.23,5.8,20.77,31.84,24.72,33s7-.72,5.12-2.8c-2.92-2.12-10.64-9.43-10.6-10.42s11.64,9.46,12.64,9.5S436.81,213.25,435.85,212.21Z"/><path class="cls-2" d="M424.63,224.56c-.85-1.14-25.85-29.27-31.23-27-5.82,5.22,18.05,34.2,21.86,35.76s5.59-1.45,3.9-3.72c-2.68-2.41-8.1-9-8-10s11,10,11.94,10.17S425.47,225.69,424.63,224.56Z"/><path class="cls-2" d="M413.21,235.89c-.72-1.22-22.52-31.91-28.11-30.26-6.35,4.55,14.23,36,17.85,37.92s4.66-.42,4.74-2.42c-2.4-2.69-7.53-10.7-7.28-11.67s9.81,11.15,10.77,11.41S413.93,237.11,413.21,235.89Z"/><path class="cls-2" d="M398.46,246.77c-.46-1.34-16.83-35.44-22.64-34.92-7.12,3.22,8.25,37.84,11.42,40.48,4,.16,2,.08,4-.84.08-2-5.54-13.05-4-14.08s5.11,12.72,6,13.16S398.93,248.11,398.46,246.77Z"/><path class="cls-2" d="M383.2,253.18c-.33-1.38-11.47-37.34-17.3-37.38-7.39,2.51,1.47,32.75,6.11,41.94,2.92,2.12,4.38,1.09,5-.8-1.52-3.27-4.57-11.19-3.41-13.89,2-.18,4.59,13.95,7,14S383.53,254.55,383.2,253.18Z"/><path class="cls-2" d="M367.94,259.58c1.11-3-11.46-39.48-11.46-39.48s-5-1.2-6,.76,2.46,39.13,4.38,41.21,1,1,5,1.19c1-1-3.33-17.14-2.29-18.1s1-1,2,.08,2.33,17.1,3.33,17.14S366.82,262.54,367.94,259.58Z"/><path class="cls-2" d="M350.75,263.91c1.42-2.83-5.42-40.25-5.42-40.25s-5.6-2-6.87-.12-1.4,37.64.3,39.9,1,1.63,4.92,2.19c1.13-.85-1.38-18.17-.25-19s1.15-1.05,2,.08.3,17.92,1.29,18.06S349.34,266.74,350.75,263.91Z"/><path class="cls-2" d="M412.36,173.26c.08-2,.08-2-1.92-2.08s-3,.88-3.07,1.88.88,3,1.88,3.08A3.18,3.18,0,0,0,412.36,173.26Z"/><path class="cls-2" d="M406,182c.07-2-5.84-4.24-6.88-3.28s1.72,7.08,3.72,7.16S405.94,184,406,182Z"/><path class="cls-2" d="M399.75,188.78c-.93-2-6.84-4.28-8.88-3.36s2.68,8.12,4.68,8.2S400.67,190.81,399.75,188.78Z"/><path class="cls-2" d="M392.48,195.5c-.93-2-7.76-6.31-8.84-4.36s3.64,9.16,4.64,9.19S393.4,197.53,392.48,195.5Z"/><path class="cls-2" d="M385.24,201.22c-.92-2-7.71-7.31-8.83-4.35s.68,8,2.64,9.11S386.17,203.25,385.24,201.22Z"/><path class="cls-2" d="M377,207.9c.07-2-5.57-11.23-7.6-10.31s-.48,12,1.48,13.07S376.9,209.89,377,207.9Z"/><path class="cls-2" d="M367.83,211.54c.11-3-4.57-11.19-7.57-11.31s-2.54,13.91-1.58,15S367.71,214.54,367.83,211.54Z"/><path class="cls-2" d="M356.68,215.1c.11-3-5.53-12.22-8.6-10.34s-1.43,11-.47,12S356.56,218.1,356.68,215.1Z"/><path class="cls-2" d="M345.49,219.67c1.08-2-.65-9-3.57-11.15s-4.42,10.83-3.46,11.87S344.41,221.63,345.49,219.67Z"/><path class="cls-2" d="M540.09,208.31a62.76,62.76,0,0,1-27.22,4.93c-4.27,6.84-24.37,9-39.32,7.46,6.37,4.83,30.74,7.22,39.77,6.57S548.08,208.62,540.09,208.31Z"/><path class="cls-2" d="M508,211.05s-52.64-10.08-56.68-9.24-2.27,6.92-7.5,12.72c.84,4,37.93,2.49,49.88,4C506.66,217.71,508,211,508,211.05Z"/><path class="cls-2" d="M489.3,227.33s-42.61-10.69-47.65-9.88-8.27,6.68-8.35,8.67,9.92,2.4,27.78,6.1C475,236.54,489.23,227.31,489.3,227.33Z"/><path class="cls-2" d="M512.16,231.23c-1-1-12-.47-21-.83-5.59,6-30.05,2.65-36.17,3.58,2.8,5.12,7.76,6.31,25.67,9S513.12,232.27,512.16,231.23Z"/><path class="cls-2" d="M469.65,243.57S434.18,229.16,431.19,229s-4.08,1.84-9.27,6.64C461.18,255.24,469.65,243.57,469.65,243.57Z"/><path class="cls-2" d="M487.55,246.27c-16,.37-17.14,3.33-27.13,2.94-3.12,2.88-6.16,3.76-7.23,5.72,3.37,2.34,7.87,3.31,13.87,3.55S487.51,247.27,487.55,246.27Z"/><path class="cls-2" d="M452.34,250.89c-2.91-2.11-27.54-12.09-29.54-12.17s-2,.92-6.15,3.76C434.89,262.21,455.26,253,452.34,250.89Z"/><path class="cls-2" d="M460,259.2c-10,.61-24.9-3-29.86-4.18s5.72,7.23,13.68,8.55S459.91,262.2,460,259.2Z"/><path class="cls-2" d="M430.89,262.06c2-.92-14.4-15.58-17.4-15.7s-4.07,1.84-7.19,4.72C409.94,260.23,428.85,263,430.89,262.06Z"/><path class="cls-2" d="M417.82,263.54C403,260,405.18,254,402.23,252.92s-6,.77-7.16,3.73C404.63,268,422.74,265.74,417.82,263.54Z"/><path class="cls-2" d="M417.66,267.54c-6,.76-13-1.51-16-1.63s4.8,5.2,8.8,5.35S423.7,266.78,417.66,267.54Z"/><path class="cls-2" d="M435.77,265.25c-1-1-13.95-1.55-15-.59s2.84,4.12,7.84,4.31S436.73,266.29,435.77,265.25Z"/><path class="cls-2" d="M398.68,266.79c1-1-5.68-8.23-6.64-9.26s-4-.16-7.12,2.72C386.61,268.32,397.64,267.75,398.68,266.79Z"/><path class="cls-2" d="M399.56,269.83c-1-1-9.95-1.39-10-.39s1.88,3.07,4.87,3.19S400.52,270.87,399.56,269.83Z"/><path class="cls-2" d="M387.41,273.36c2-.92-5.56-11.23-6.52-12.27s-7.11,2.72-7.19,4.72S385.37,274.28,387.41,273.36Z"/><path class="cls-2" d="M383.34,275.2c-.93-2-3.88-3.16-4.92-2.2s-.16,4,.84,4S384.26,277.24,383.34,275.2Z"/><path class="cls-2" d="M375.3,275.88c1-1-5.68-8.23-7.64-9.3s-6.07,1.76-5.15,3.8S374.26,276.84,375.3,275.88Z"/><path class="cls-2" d="M364.19,278.45c3.08-1.88-6.64-9.27-7.56-11.31s-6.07,1.76-6.15,3.76S361.12,280.33,364.19,278.45Z"/><path class="cls-2" d="M357.12,280.17c-3.92-2.15-10.64-9.42-11.64-9.46s-1-1-4.11,2.84C348,282.82,361,282.33,357.12,280.17Z"/><path class="cls-2" d="M20.87,119.33c4,1.16,7.68,8.31,11.68,8.47s157.8,8.2,168.79,8.64,11,.43,14.79,5.58,4.64,9.19,9.21,20.38S256.8,176.65,266.71,179c-2.47,11.91-2.5,12.91,0,25-1,1-5.54-6-7.76-6.31-6.07,1.76-10-.39-9.83-4.39,0,0-9.15,3.64-12.83-4.51-2-1.08-8.16,3.68-9.8-5.39-2-1.08-8.11,2.69-5.76-6.23-3-1.12-13-.51-8.72-7.35-2-1.07-17.1,2.33-6.76-6.27-5.8-5.23-12-1.47-14.83-4.58.08-2,7.27-6.72,7.27-6.72s-138.93-4.47-141.93-4.59c-20-.78-25.66-9-28.54-12.13C24.68,133.74,16.91,118.17,20.87,119.33Z"/><path class="cls-2" d="M34.28,147.38c6,.23,7.91,2.31,40.89,3.61,3.49,13.15,23.39,15.93,32.31,18.28C54.24,174.18,32,155.29,34.28,147.38Z"/><path class="cls-2" d="M80.09,153.18,145,155.74l3.44,14.15-40.93-2.62S78.73,162.14,80.09,153.18Z"/><path class="cls-2" d="M150.07,154.94s35,.37,39,1.53c1.84,4.07-34.48,11.65-36.44,10.57s-3.88-3.15-2.8-5.11c5,.2,12-.53,12.07-1.53s-11-.43-12-.47S150.07,154.94,150.07,154.94Z"/><path class="cls-2" d="M46.48,167.87c6,.24,3.92,2.16,32.82,5.3,7.29,18.3,41.5,13.64,50.41,16C71.17,201.87,53,180.14,46.48,167.87Z"/><path class="cls-2" d="M84.3,173.36c7,.28,65,.56,65,.56l4.48,13.19-44-1.73S82.94,182.32,84.3,173.36Z"/><path class="cls-2" d="M154.44,171.12c1-1,35.48-11.61,40.36-8.42,4.76,6.19-32.84,20.73-35.84,20.61s-5.87-3.24-3.8-5.16c3,.12,12.11-2.52,12.15-3.52s-12.07,1.53-13.07,1.49S153.4,172.08,154.44,171.12Z"/><path class="cls-2" d="M161.8,187.42c1-1,32.81-19.72,37.68-16.53,4.76,6.19-27.12,28-30.11,27.84s-7-1.28-4.88-3.2c3,.12,11.3-7.56,11.34-8.56s-12.26,6.53-13.26,6.49S160.77,188.38,161.8,187.42Z"/><path class="cls-2" d="M170.25,201.77c1-1,30-23.85,34.84-20.65,4.76,6.19-23.21,30.11-27.24,30.95s-7-1.27-4.88-3.19c3.08-1.88,11.34-8.56,11.38-9.56S172,207.84,171,207.8,169.21,202.73,170.25,201.77Z"/><path class="cls-2" d="M180.47,215c.93-1.06,28.07-27.14,33.25-24.48,5.39,5.65-20.68,32.66-24.6,33.93s-5.45-1.89-3.59-4c2.86-2.2,8.77-8.36,8.71-9.35s-11.71,9.13-12.71,9.19S179.54,216,180.47,215Z"/><path class="cls-2" d="M191,227.14c.81-1.16,24.95-30,30.4-27.95,6,5-17,34.72-20.78,36.4s-4.61-.79-4.53-2.79c2.6-2.49,8.34-10.07,8.17-11.06s-10.65,10.35-11.63,10.53S190.15,228.3,191,227.14Z"/><path class="cls-2" d="M204.8,239.15c.57-1.29,19.57-34,25.32-33,6.84,3.77-11.2,37.07-14.56,39.46-4-.16-2-.08-4-1.16.08-2,6.56-12.57,5.07-13.72s-6.1,12.28-7,12.65S204.24,240.45,204.8,239.15Z"/><path class="cls-2" d="M219.52,246.74c.44-1.35,14.36-36.32,20.18-35.91,7.18,3.09-4,32.54-9.39,41.34-3.07,1.88-4.45.73-4.95-1.2,1.76-3.14,5.42-10.8,4.48-13.58-1.94-.33-5.67,13.55-8.08,13.44S219.08,248.08,219.52,246.74Z"/><path class="cls-2" d="M234.23,254.32c-.88-3,14.52-38.46,14.52-38.46s5-.8,6,1.24-5.53,38.81-7.61,40.73-1,1-5,.8c-1-1,4.66-16.83,3.7-17.87s-1-1-2-.07-3.66,16.86-4.66,16.83S235.11,257.36,234.23,254.32Z"/><path class="cls-2" d="M251,260c-1.18-2.94,8.57-39.7,8.57-39.7s5.73-1.52,6.86.42-1.57,37.63-3.44,39.75-1.08,1.55-5.07,1.8c-1.06-.94,2.8-18,1.74-18.95s-1.06-1.14-2-.08-1.7,17.85-2.7,17.91S252.21,262.92,251,260Z"/><path class="cls-2" d="M196.72,164.78c.08-2,.08-2,2.08-1.92s3,1.11,2.92,2.11-1.12,3-2.12,2.92A3.18,3.18,0,0,1,196.72,164.78Z"/><path class="cls-2" d="M202.36,174c.08-2,6.16-3.76,7.12-2.73s-2.28,6.92-4.28,6.84S202.28,176,202.36,174Z"/><path class="cls-2" d="M208.08,181.24c1.08-2,7.16-3.73,9.11-2.65s-3.31,7.88-5.31,7.8S207,183.2,208.08,181.24Z"/><path class="cls-2" d="M214.8,188.51c1.08-2,8.23-5.68,9.15-3.65s-4.35,8.84-5.35,8.8S213.72,190.47,214.8,188.51Z"/><path class="cls-2" d="M221.56,194.78c1.08-2,8.27-6.68,9.15-3.65s-1.31,8-3.35,8.88S220.48,196.74,221.56,194.78Z"/><path class="cls-2" d="M229.28,202.09c.08-2,6.43-10.76,8.39-9.68s-.47,12-2.51,12.91S229.2,204.08,229.28,202.09Z"/><path class="cls-2" d="M238.12,206.44c.11-3,5.42-10.8,8.42-10.68s1.45,14.07.41,15S238,209.43,238.12,206.44Z"/><path class="cls-2" d="M249,210.87c.12-3,6.47-11.76,9.39-9.64s.56,11-.48,12S248.83,213.86,249,210.87Z"/><path class="cls-2" d="M259.75,216.29c-.93-2,1.35-8.95,4.42-10.83s3.57,11.15,2.53,12.11S260.67,218.33,259.75,216.29Z"/><path class="cls-2" d="M66.64,189.68c8.84,4.35,16.75,6.67,26.75,7.06,3.72,7.15,23.58,10.94,38.61,10.53-6.74,4.31-31.21,4.77-40.16,3.42S58.65,189.37,66.64,189.68Z"/><path class="cls-2" d="M98.46,194.94s53.27-5.91,57.23-4.76,1.72,7.08,6.48,13.27c-1.15,4-38-.5-50,0C99.22,201.68,98.39,194.92,98.46,194.94Z"/><path class="cls-2" d="M115.78,212.63s43.32-7.3,48.28-6.1,7.71,7.3,7.64,9.3-10.08,1.61-28.18,3.9C129.27,222.94,115.85,212.62,115.78,212.63Z"/><path class="cls-2" d="M92.68,214.73c1-1,12,.47,21,.82,5.1,6.44,29.75,5,35.78,6.41-3.2,4.88-8.23,5.68-26.3,7S91.64,215.69,92.68,214.73Z"/><path class="cls-2" d="M134.09,230.37s36.49-11.58,39.49-11.46,3.91,2.15,8.71,7.35C141.62,242.67,134.09,230.37,134.09,230.37Z"/><path class="cls-2" d="M116,231.66c15.95,1.63,16.83,4.66,26.82,5.06,2.88,3.11,5.84,4.23,6.76,6.27-3.55,2.06-8.11,2.68-14.11,2.44S116,232.66,116,231.66Z"/><path class="cls-2" d="M150.77,239c3.07-1.88,28.41-9.89,30.41-9.81s2,1.07,5.83,4.23C167.28,251.69,147.69,240.91,150.77,239Z"/><path class="cls-2" d="M142.46,246.71c9.95,1.39,25.06-1,30.09-1.82s-6.27,6.76-14.3,7.44S142.34,249.71,142.46,246.71Z"/><path class="cls-2" d="M171.28,251.84c-2-1.07,15.58-14.39,18.58-14.28s3.91,2.16,6.79,5.27C192.3,251.67,173.24,252.92,171.28,251.84Z"/><path class="cls-2" d="M184.19,254.35c15.11-2.4,13.34-8.48,16.38-9.36s6,1.24,6.84,4.27C197,259.86,179.12,256.16,184.19,254.35Z"/><path class="cls-2" d="M184,258.35c6,1.24,13-.49,16-.37s-5.19,4.8-9.19,4.64S178.08,257.12,184,258.35Z"/><path class="cls-2" d="M166.17,254.65c1-1,14-.45,15,.59s-3.15,3.87-8.15,3.68S165.13,255.61,166.17,254.65Z"/><path class="cls-2" d="M203,259.1c-1-1,6.31-7.76,7.35-8.72s4,.16,6.87,3.27C214.93,261.57,204,260.14,203,259.1Z"/><path class="cls-2" d="M201.9,262.06c1-1,10-.61,10,.39s-2.11,2.92-5.11,2.8S200.86,263,201.9,262.06Z"/><path class="cls-2" d="M213.74,266.52c-2-1.07,6.42-10.75,7.46-11.71s6.88,3.27,6.8,5.27S215.69,267.6,213.74,266.52Z"/><path class="cls-2" d="M217.65,268.68c1.08-2,4.12-2.84,5.08-1.8s-.16,4-1.16,4S216.58,270.64,217.65,268.68Z"/><path class="cls-2" d="M225.61,270c-1-1,6.31-7.75,8.35-8.67s5.91,2.23,4.83,4.19S226.57,271,225.61,270Z"/><path class="cls-2" d="M236.48,273.42c-2.92-2.11,7.35-8.71,8.43-10.67s5.91,2.23,5.84,4.23S239.4,275.54,236.48,273.42Z"/><path class="cls-2" d="M243.4,275.7c4.07-1.84,11.34-8.56,12.34-8.52s1-1,3.88,3.15C252.27,279.05,239.32,277.54,243.4,275.7Z"/></g><g id="Шар_6" data-name="Шар 6"><path class="cls-4" d="M529.57,149.17s4.42,6.12,9.19,6.64,10-3.71,10.41-4.48.29-2.64-.24-2.7-1.29,2-2.38,2.15-4.68-1.32-6.8-1.56-4.35.6-5.68.45-2.62-3-3.41-3.06S529.57,149.17,529.57,149.17Z"/><path class="cls-5" d="M538.58,152.58c1-1.5,3.73-21.19,2.24-20.39-3.2-.09-11.89-6.4-11.92-8.55,3.75-.41,11.86,1.84,12.71,1.4S543.28,110,543.28,110s1.43-8.15-2-8.53-11.23,7.07-13.91,11.87S523,128.35,523,128.35,537.61,154.08,538.58,152.58Z"/><path class="cls-5" d="M540.54,153c-.66-1.66.45-21.51,1.74-20.44,3.17.54,12.91-4,13.36-6.08-3.6-1.12-12-.49-12.74-1.08s1.29-15.13,1.29-15.13.17-8.28,3.62-8,9.65,9.11,11.34,14.34,1.34,15.62,1.34,15.62S541.2,154.66,540.54,153Z"/><path class="cls-1" d="M541,101.39c.18-1.59,2-6.21,3.35-6.06s2.88,6,2.74,7-2.54,13.71-3.62,13.41S540.83,103,541,101.39Z"/><path class="cls-6" d="M543.63,95.64c-.46.63-1.73,24.34-1.73,24.34l-3.32,32.6s.12,1.35.65,1.41,1.17-.94,1.17-.94L544,120.21s1.35-23.35,1.12-24.22A.81.81,0,0,0,543.63,95.64Z"/><path class="cls-5" d="M526.28,152.3c.94-1.24.67-8.51,1-11.42a33.64,33.64,0,0,0,.61-5.56c-2.12-5.06-1.83-10.12.76-11.71-2.27-3.73-.27-14.15,0-19-6-4.15-8.6-7.11-11.1-16-1.45.92-.49,19,0,21.71,1,8.15,1.74,10.92,4,12,.2,3-.84,5.69-.83,9S521.78,149.39,526.28,152.3Z"/><path class="cls-5" d="M551.7,155.1c-.75-1.36,1.58-7.61,1.7-10.54a27.82,27.82,0,0,1,.46-5.92c2.85-4.69,3.31-9.74,1-11.69,2.8-3.36,3-14.77,3.47-19.63,6.52-3.22,8.94-5,12.73-13.34,1.29,1.11-2.33,18.84-3.23,21.47-2.17,7.91-3.33,10.53-5.76,11.24-.65,2.91,0,5.75-.51,9S556.58,152.89,551.7,155.1Z"/></g></svg>