<svg id="Шар_2" data-name="Шар 2" xmlns="http://www.w3.org/2000/svg" viewBox="0 0 32 32"><defs><style>.cls-1{fill:#fabf41;}</style></defs><title>home</title><path class="cls-1" d="M0,16.05C9.3,7.84,14.22,1.49,15.87,2c2.46-.14,6.67,5.76,6.85,5.3s-.18-4.5,0-5.07,3.94-.48,4.19,0,.05,8.55.3,9.2,4.62,3.8,4.78,4.62a3.73,3.73,0,0,1-1.78,2.85C29.48,19.14,16.62,6.42,16,6.46S2.54,19.25,2.1,19.14,0,16.79,0,16.05Z"/><path class="cls-1" d="M5,19.14c.11-.24,9.79-9.75,11-10,1.1,0,10.79,9.25,11,10s.08,9.36,0,9.82a1.56,1.56,0,0,1-.85,1.09c-.44.25-6.65,0-6.83,0a.72.72,0,0,1-.63-.42c-.22-.38.07-7.25,0-7.48s-.22-.58-.52-.67a28.83,28.83,0,0,0-4.47.08.7.7,0,0,0-.37.59c0,.25.07,7.29,0,7.52s-.24.26-.44.38-6.54,0-6.91,0S5.1,29.18,5,29,4.9,19.38,5,19.14Z"/></svg>