<svg id="Шар_2" data-name="Шар 2" xmlns="http://www.w3.org/2000/svg" viewBox="0 0 32 32"><defs><style>.cls-1{fill:#fabf4f;}</style></defs><title>settings</title><path class="cls-1" d="M31.17,20.12c-.81-1-2.6-1.28-3-1.92s-.34-3.63,0-4.45,2.52-1.36,3-2.13-2.69-7-3.93-6.67S24.59,6.62,24,6.66A11,11,0,0,1,20,4.4c-.26-.52.38-2.57,0-3.68s-7.74-.85-8,.21.22,3,0,3.47A15.92,15.92,0,0,1,8,6.66C7.5,6.7,5.53,4.78,4.63,5S.36,11.06.74,11.66s2.87,1.37,3.17,2,.47,4.1-.05,4.57S1.13,19.61.74,20.46,4,27.39,5,27.09s2.3-1.75,3-1.75,3.59,1.49,4,2.22-.25,3.2.35,3.8,7.18,1.07,7.6,0-.17-3.16.22-3.76A12,12,0,0,1,24,25.29c.77-.17,2.14,1.59,3.17,1.71S32,21.11,31.17,20.12ZM16,21.18A5.18,5.18,0,1,1,21.18,16,5.18,5.18,0,0,1,16,21.18Z"/></svg>